<svg width="650" height="473" viewBox="0 0 650 473" fill="none" xmlns="http://www.w3.org/2000/svg">
<path opacity="0.6" d="M107.226 408.09C107.226 408.09 64.3312 406.832 46.9998 373.145C33.3666 346.651 40.9901 307.736 98.1913 297.411C133.763 290.99 71.1357 220.313 147.955 203.25C224.775 186.188 224.037 110.031 299.762 95.0226C375.487 80.0137 375.616 186.699 443.401 197.974C511.186 209.249 559.052 238.967 542.435 294.4C525.817 349.833 563.983 351.992 569.677 376.766C575.37 401.54 559.271 408.09 559.271 408.09H107.226Z" fill="url(#paint0_linear_65_4432)"/>
<path d="M649.433 411.246H0.567275C0.259326 411.246 0 410.547 0 409.668C0 408.79 0.251222 408.091 0.567275 408.091H649.433C649.749 408.091 650 408.79 650 409.668C650 410.547 649.749 411.246 649.433 411.246Z" fill="#8EBDCC"/>
<path d="M542.402 472.94H153.6C148.499 472.94 144.33 468.759 144.33 463.662C144.33 458.556 148.507 454.384 153.6 454.384H542.402C547.504 454.384 551.672 458.564 551.672 463.662C551.68 468.759 547.504 472.94 542.402 472.94Z" fill="#E1F2F8"/>
<path d="M121.216 472.94H97.3803C92.279 472.94 88.1104 468.759 88.1104 463.662C88.1104 458.556 92.2871 454.384 97.3803 454.384H121.216C126.317 454.384 130.486 458.564 130.486 463.662C130.494 468.759 126.317 472.94 121.216 472.94Z" fill="#E1F2F8"/>
<path d="M469.005 435.811H445.169C440.068 435.811 435.899 431.631 435.899 426.533C435.899 421.427 440.076 417.255 445.169 417.255H469.005C474.106 417.255 478.275 421.436 478.275 426.533C478.283 431.639 474.106 435.811 469.005 435.811Z" fill="#E1F2F8"/>
<path d="M201.118 435.811H125.596C120.494 435.811 116.326 431.631 116.326 426.533C116.326 421.427 120.502 417.255 125.596 417.255H201.118C206.219 417.255 210.388 421.436 210.388 426.533C210.396 431.639 206.219 435.811 201.118 435.811Z" fill="#E1F2F8"/>
<path d="M509.467 435.811H500.878C495.777 435.811 491.608 431.631 491.608 426.533C491.608 421.427 495.785 417.255 500.878 417.255H509.467C514.568 417.255 518.737 421.436 518.737 426.533C518.745 431.639 514.568 435.811 509.467 435.811Z" fill="#E1F2F8"/>
<path d="M411.333 435.811H236.275C231.174 435.811 227.005 431.631 227.005 426.533C227.005 421.427 231.182 417.255 236.275 417.255H411.333C416.435 417.255 420.603 421.436 420.603 426.533C420.612 431.639 416.435 435.811 411.333 435.811Z" fill="#E1F2F8"/>
<path d="M392.51 445.098C392.51 439.992 396.687 435.82 401.78 435.82H254.945C260.046 435.82 264.215 440 264.215 445.098C264.215 450.203 260.038 454.376 254.945 454.376H401.78C396.678 454.376 392.51 450.203 392.51 445.098Z" fill="#E1F2F8"/>
<path opacity="0.7" d="M40.6156 119.189H125.103C125.103 112.896 121.041 107.59 115.46 105.866C113.954 98.9492 107.979 93.7634 100.809 93.6712C96.9611 85.9953 89.1693 80.7456 80.1825 80.7456C68.7089 80.7456 59.1764 89.3083 57.3251 100.553C57.2146 100.553 57.111 100.545 57.0005 100.545C47.8962 100.545 40.512 108.129 40.512 117.479C40.512 118.061 40.5396 118.628 40.5949 119.196C40.6087 119.189 40.6156 119.189 40.6156 119.189Z" fill="url(#paint1_linear_65_4432)"/>
<path opacity="0.7" d="M396.246 53.6631H464.729C464.729 48.6599 461.433 44.4338 456.913 43.0591C455.694 37.5555 450.852 33.4266 445.036 33.3537C441.919 27.2478 435.607 23.0703 428.321 23.0703C419.017 23.0703 411.298 29.8855 409.795 38.8331C409.708 38.8331 409.616 38.8282 409.53 38.8282C402.148 38.8282 396.168 44.8613 396.168 52.2982C396.168 52.7596 396.193 53.2162 396.236 53.6631C396.241 53.6631 396.246 53.6631 396.246 53.6631Z" fill="url(#paint2_linear_65_4432)"/>
<path d="M235.578 407.636H303.014C303.72 407.636 304.295 407.059 304.295 406.353V398.642C304.295 397.936 303.72 397.359 303.014 397.359H235.578C234.872 397.359 234.296 397.936 234.296 398.642V406.353C234.304 407.068 234.872 407.636 235.578 407.636Z" fill="#FFB547"/>
<path d="M146.68 268.143C144.42 263.105 141.599 258.637 138.33 254.673C132.325 274.733 119.858 310.869 111.406 297.157C105.662 287.847 112.751 272.022 121.277 258.534C126.078 250.935 123.248 240.858 115.16 236.951C115.085 236.914 115.02 236.886 114.945 236.848C112.312 235.586 109.192 237.082 108.539 239.923C103.748 260.721 93.8016 297.232 85.2843 285.594C78.7002 276.602 85.9847 256.786 93.6241 241.157C96.2858 235.708 92.9984 229.249 87.04 228.165C86.984 228.155 86.928 228.146 86.8719 228.136C84.9481 227.791 83.0989 229.043 82.6974 230.95C79.1018 247.99 71.892 273.564 62.0859 266.657C55.5672 262.067 58.481 249.841 63.6362 237.811C66.1391 231.96 61.8338 225.463 55.4738 225.435C55.4178 225.435 55.3524 225.435 55.2964 225.435C53.3165 225.426 51.6728 226.94 51.4954 228.903C50.4494 240.363 47.8625 256.225 41.6053 254.038C38.5327 252.963 37.9817 248.467 38.6541 242.84C39.7281 233.894 32.1634 226.276 23.2259 227.351C11.2158 228.791 3.43632 230.511 3.43632 230.511C3.43632 230.511 3.03474 239.587 3.90328 253.047C4.28618 259.02 10.0297 263.067 15.8106 261.553C21.4982 260.057 27.2697 260.254 31.0054 264.862C37.6828 273.097 21.1433 274.836 10.2165 275.125C8.10587 275.181 6.52756 277.079 6.87311 279.163C6.88245 279.229 6.8918 279.304 6.91047 279.369C8.21795 287.127 15.9787 291.988 23.5528 289.903C29.2403 288.333 34.9278 288.632 38.2058 293.764C43.912 302.681 26.7094 304.756 15.297 305.177C14.1203 305.224 13.3264 306.373 13.6907 307.495C13.7187 307.57 13.7467 307.654 13.7654 307.738C17.0341 317.646 28.792 321.675 37.5521 316.02C46.4803 310.262 56.4918 306.448 63.8697 311.084C75.4409 318.347 50.4307 329.302 33.5363 335.481C30.7252 336.509 29.7259 339.986 31.5937 342.323C31.8085 342.594 32.0327 342.865 32.2568 343.136C37.0291 348.932 45.453 350.081 51.5794 345.735C58.8639 340.566 67.5493 336.864 75.3661 340.145C85.5084 344.398 74.6564 351.717 63.4401 357.223C60.573 358.634 61.068 362.896 64.2059 363.541C110.322 373.029 171.326 322.965 146.68 268.143Z" fill="#DCF1F8"/>
<path d="M140.002 291.39C140.124 291.157 140.039 290.876 139.806 290.745C139.573 290.624 139.292 290.708 139.162 290.942C139.003 291.241 122.949 321.087 105.018 331.63C101.394 327.228 97.5652 322.75 93.6334 318.273C93.6241 318.245 93.6148 318.217 93.5961 318.198C93.5587 318.142 93.5027 318.095 93.4467 318.067C91.0185 315.31 88.5623 312.552 86.0781 309.814C98.331 303.074 105.326 289.39 109.043 279.024C113.115 267.667 114.245 257.74 114.264 257.637C114.292 257.375 114.105 257.142 113.843 257.114C113.582 257.086 113.348 257.273 113.32 257.534C113.274 257.927 108.744 296.475 85.4244 309.094C80.6334 303.813 75.7957 298.625 71.0701 293.652C71.0608 293.634 71.0515 293.606 71.0421 293.587C70.9954 293.531 70.9394 293.484 70.8834 293.456C68.1283 290.549 65.4106 287.726 62.777 285.006C77.2993 277.687 84.4438 251.402 84.7426 250.271C84.808 250.019 84.6586 249.757 84.4064 249.692C84.1542 249.626 83.8927 249.776 83.8274 250.028C83.7526 250.299 76.4028 277.351 62.0766 284.286C58.5277 280.631 55.1283 277.182 51.9623 273.986C51.925 273.92 51.8689 273.873 51.8129 273.836C49.8797 271.892 48.0306 270.041 46.2841 268.302C54.8855 261.011 57.2856 237.073 57.2856 236.849C57.2856 236.596 57.0802 236.381 56.828 236.381C56.5758 236.381 56.3517 236.578 56.3424 236.839C56.333 237.073 53.8582 260.768 45.6117 267.639C36.5808 258.675 30.5477 252.945 30.3423 252.739C30.1555 252.562 29.8566 252.571 29.6699 252.758C29.4924 252.945 29.5018 253.244 29.6885 253.431C29.9407 253.674 38.5981 261.89 50.7669 274.126C36.366 281.594 15.8386 280.407 15.6332 280.388C15.3717 280.379 15.1475 280.566 15.1289 280.828C15.1102 281.089 15.3156 281.314 15.5678 281.333C15.6238 281.333 16.894 281.407 19.0139 281.407C25.6167 281.407 40.3725 280.678 51.4673 274.817C57.0708 280.463 63.384 286.922 69.9401 293.821C53.4379 305.841 28.1756 309.72 27.9235 309.758C27.662 309.795 27.4845 310.038 27.5219 310.3C27.5592 310.533 27.7553 310.702 27.9888 310.702C28.0168 310.702 28.0355 310.702 28.0635 310.692C28.325 310.655 53.9142 306.729 70.6032 294.512C77.8317 302.13 85.331 310.253 92.5034 318.404C66.1765 337.042 43.4918 339.482 43.2583 339.51C42.9968 339.538 42.81 339.772 42.838 340.034C42.866 340.277 43.0715 340.464 43.305 340.464C43.3236 340.464 43.333 340.464 43.3517 340.464C43.5851 340.445 66.55 337.977 93.1291 319.133C99.3023 326.162 105.205 333.201 110.463 339.921C91.8777 354.653 82.9028 353.578 82.8001 353.559C82.5386 353.522 82.3051 353.699 82.2584 353.952C82.221 354.213 82.3985 354.456 82.6506 354.494C82.7067 354.503 82.9588 354.541 83.4258 354.541C85.994 354.541 94.9222 353.447 111.051 340.669C117.317 348.736 122.613 356.335 126.236 362.878C126.32 363.037 126.488 363.121 126.647 363.121C126.722 363.121 126.806 363.103 126.881 363.065C127.114 362.934 127.189 362.654 127.067 362.42C123.379 355.756 117.971 348.007 111.565 339.781C111.546 339.753 111.546 339.725 111.518 339.697C111.499 339.678 111.471 339.66 111.452 339.641C109.594 337.257 107.651 334.836 105.653 332.387C123.733 321.629 139.843 291.699 140.002 291.39Z" fill="#CAE7F0"/>
<path d="M424.443 342.94C429.122 340.014 433.166 336.612 436.649 332.836C415.982 329.602 378.513 322.142 390.944 311.898C399.386 304.943 416 309.823 430.523 316.441C438.694 320.17 448.286 315.992 451.059 307.448C451.087 307.374 451.106 307.299 451.134 307.224C452.021 304.448 450.125 301.55 447.221 301.289C425.984 299.354 388.497 294.456 398.863 284.426C406.876 276.677 427.478 281.211 443.99 286.669C449.743 288.576 455.692 284.435 455.953 278.378C455.953 278.322 455.962 278.266 455.962 278.21C456.047 276.257 454.552 274.593 452.61 274.453C435.258 273.2 408.959 269.526 414.459 258.861C418.111 251.776 430.616 253.01 443.224 256.478C449.35 258.17 455.197 253.01 454.365 246.7C454.356 246.644 454.347 246.588 454.347 246.523C454.085 244.56 452.367 243.13 450.396 243.223C438.919 243.747 422.855 243.335 424.172 236.83C424.816 233.633 429.197 232.474 434.856 232.39C443.859 232.24 450.368 223.706 448.099 214.985C445.036 203.263 442.271 195.786 442.271 195.786C442.271 195.786 433.231 196.618 420.026 199.31C414.17 200.497 410.939 206.741 413.227 212.265C415.477 217.705 416.066 223.454 412.013 227.781C404.765 235.521 400.796 219.36 399.031 208.563C398.686 206.479 396.594 205.17 394.576 205.797C394.511 205.815 394.446 205.834 394.38 205.862C386.881 208.208 383.117 216.565 386.218 223.799C388.543 229.23 389.02 234.904 384.387 238.858C376.337 245.728 371.948 228.959 369.977 217.686C369.772 216.527 368.52 215.892 367.465 216.406C367.39 216.443 367.316 216.481 367.241 216.518C357.874 221.098 355.483 233.306 362.272 241.232C369.183 249.299 374.311 258.712 370.734 266.666C365.121 279.126 350.879 255.814 342.464 239.896C341.063 237.25 337.486 236.727 335.423 238.895C335.18 239.148 334.937 239.409 334.703 239.662C329.614 245.177 329.623 253.692 334.75 259.17C340.858 265.685 345.696 273.798 343.51 281.996C340.68 292.633 331.967 282.856 324.991 272.49C323.207 269.835 319.051 270.91 318.836 274.107C315.689 321.133 373.526 374.833 424.443 342.94Z" fill="#D5EBF2"/>
<path d="M400.526 339.482C400.768 339.575 401.039 339.444 401.133 339.201C401.226 338.958 401.095 338.687 400.853 338.594C400.535 338.472 368.81 326.611 355.941 310.262C359.807 306.075 363.72 301.672 367.624 297.157C367.652 297.138 367.68 297.129 367.699 297.11C367.755 297.064 367.783 297.008 367.811 296.942C370.211 294.166 372.611 291.343 374.983 288.52C383.314 299.756 397.808 304.831 408.576 307.112C420.371 309.608 430.355 309.383 430.448 309.383C430.71 309.374 430.915 309.159 430.906 308.897C430.896 308.636 430.682 308.43 430.42 308.439C430.028 308.449 391.252 309.187 375.6 287.782C380.176 282.314 384.659 276.808 388.936 271.452C388.955 271.433 388.983 271.433 389.001 271.415C389.057 271.368 389.085 271.303 389.113 271.237C391.616 268.106 394.044 265.031 396.379 262.049C405.597 275.453 432.587 278.977 433.745 279.117C434.006 279.145 434.24 278.967 434.277 278.706C434.315 278.444 434.128 278.21 433.866 278.173C433.586 278.135 405.812 274.518 397.005 261.254C400.133 257.244 403.094 253.402 405.821 249.822C405.877 249.776 405.924 249.72 405.952 249.654C407.614 247.467 409.192 245.382 410.677 243.42C419.064 250.963 443.084 250.084 443.308 250.056C443.56 250.019 443.738 249.794 443.71 249.533C443.672 249.28 443.448 249.093 443.196 249.112C442.963 249.131 419.176 249.897 411.256 242.653C418.905 232.483 423.761 225.725 423.929 225.482C424.079 225.267 424.032 224.977 423.817 224.818C423.603 224.669 423.313 224.716 423.154 224.931C422.949 225.211 415.991 234.914 405.531 248.635C396.183 235.372 394.577 214.854 394.558 214.649C394.53 214.387 394.315 214.191 394.054 214.209C393.792 214.228 393.596 214.452 393.615 214.714C393.615 214.761 393.717 216.041 394.007 218.135C394.904 224.678 397.621 239.213 404.934 249.421C400.105 255.739 394.577 262.881 388.637 270.321C374.498 255.59 367.232 231.062 367.157 230.819C367.082 230.567 366.821 230.427 366.569 230.502C366.345 230.567 366.204 230.791 366.232 231.025C366.232 231.044 366.242 231.072 366.251 231.09C366.326 231.343 373.685 256.179 388.049 271.078C381.493 279.276 374.46 287.829 367.372 296.045C345.341 272.471 339.849 250.309 339.793 250.084C339.728 249.832 339.476 249.673 339.224 249.729C338.981 249.785 338.832 250.019 338.869 250.252C338.869 250.271 338.878 250.28 338.878 250.299C338.934 250.524 344.482 272.966 366.746 296.765C360.62 303.84 354.456 310.655 348.525 316.768C331.416 300.335 331.267 291.296 331.267 291.184C331.267 290.923 331.061 290.708 330.8 290.708C330.538 290.708 330.324 290.913 330.314 291.175C330.314 291.231 330.314 291.493 330.38 291.951C330.725 294.493 333.023 303.205 347.862 317.46C340.727 324.769 333.928 331.05 327.942 335.528C327.802 335.631 327.737 335.808 327.755 335.977C327.765 336.051 327.793 336.126 327.849 336.191C328.007 336.397 328.306 336.444 328.512 336.285C334.61 331.723 341.54 325.302 348.815 317.833C348.843 317.815 348.871 317.805 348.89 317.777C348.908 317.759 348.918 317.731 348.936 317.703C351.038 315.534 353.176 313.281 355.324 310.963C368.39 327.452 400.199 339.36 400.526 339.482Z" fill="#B9DCE7"/>
<path d="M556.919 363.822C556.919 363.822 576.036 371.038 575.942 358.382C575.849 345.726 569.947 342.585 578.511 337.827C587.065 333.07 592.398 331.359 590.876 322.124C589.353 312.889 609.32 305.084 607.331 294.811C605.332 284.529 589.83 286.529 583.647 293.474C577.465 300.419 562.634 294.998 559.87 310.795C557.105 326.592 556.256 324.498 546.365 332.21C536.475 339.921 539.987 359.457 556.919 363.822Z" fill="#D5EBF2"/>
<path d="M554.369 378.179C554.388 378.179 554.416 378.179 554.434 378.179C555.275 378.142 555.919 377.432 555.882 376.59C555.872 376.441 555.499 366 559.533 351.951C563.26 338.986 571.618 320.189 590.296 304.242C590.931 303.7 591.016 302.737 590.465 302.102C589.923 301.466 588.961 301.382 588.326 301.933C569.022 318.403 560.411 337.836 556.573 351.24C552.417 365.776 552.828 376.291 552.847 376.731C552.884 377.544 553.556 378.179 554.369 378.179Z" fill="#BEDDE7"/>
<path d="M548 365.43C548 365.43 531.273 371.749 531.357 360.673C531.441 349.596 536.597 346.848 529.107 342.688C521.617 338.529 516.957 337.024 518.292 328.948C519.628 320.872 502.154 314.039 503.9 305.047C505.647 296.055 519.207 297.803 524.615 303.878C530.022 309.954 543.003 305.215 545.413 319.04C547.822 332.864 548.579 331.032 557.227 337.781C565.884 344.511 562.812 361.607 548 365.43Z" fill="#B3D0DB"/>
<path d="M550.232 378.18C551.044 378.18 551.717 377.544 551.745 376.731C551.763 376.348 552.118 367.113 548.476 354.363C545.114 342.613 537.559 325.573 520.636 311.132C520.001 310.59 519.039 310.664 518.497 311.3C517.956 311.936 518.03 312.898 518.666 313.441C534.972 327.359 542.265 343.763 545.525 355.083C549.064 367.384 548.719 376.507 548.719 376.6C548.681 377.442 549.335 378.152 550.166 378.18C550.185 378.18 550.213 378.18 550.232 378.18Z" fill="#8CBBCD"/>
<path d="M536.419 408.213H566.099C567.472 408.213 568.648 407.231 568.891 405.876L573.57 380.003C573.888 378.264 572.543 376.656 570.778 376.656H531.74C529.966 376.656 528.63 378.264 528.948 380.003L533.627 405.876C533.87 407.231 535.046 408.213 536.419 408.213Z" fill="#44465F"/>
<path d="M416.215 140.795H400.358V407.548H416.215V140.795Z" fill="#333649"/>
<path d="M481.269 135.182C498.168 94.3499 478.795 47.5381 437.999 30.6247C397.203 13.7112 350.432 33.1009 333.534 73.9327C316.635 114.764 336.008 161.576 376.804 178.49C417.6 195.403 464.371 176.014 481.269 135.182Z" fill="#333649"/>
<path d="M407.39 173.595C445.481 173.595 476.359 142.69 476.359 104.565C476.359 66.4414 445.481 35.5356 407.39 35.5356C369.299 35.5356 338.421 66.4414 338.421 104.565C338.421 142.69 369.299 173.595 407.39 173.595Z" fill="white"/>
<path d="M408.286 164.164C441.173 164.164 467.833 137.481 467.833 104.566C467.833 71.6504 441.173 44.9673 408.286 44.9673C375.4 44.9673 348.74 71.6504 348.74 104.566C348.74 137.481 375.4 164.164 408.286 164.164Z" fill="#FFB547"/>
<path d="M408.287 149.703C433.194 149.703 453.385 129.494 453.385 104.565C453.385 79.6363 433.194 59.4272 408.287 59.4272C383.379 59.4272 363.188 79.6363 363.188 104.565C363.188 129.494 383.379 149.703 408.287 149.703Z" fill="#FFB547"/>
<path d="M408.287 154.873C380.568 154.873 358.024 132.308 358.024 104.565C358.024 76.8227 380.568 54.2583 408.287 54.2583C436.005 54.2583 458.55 76.8227 458.55 104.565C458.55 132.308 436.005 154.873 408.287 154.873ZM408.287 59.4274C383.417 59.4274 363.188 79.6736 363.188 104.565C363.188 129.457 383.417 149.704 408.287 149.704C433.157 149.704 453.385 129.457 453.385 104.565C453.385 79.683 433.157 59.4274 408.287 59.4274Z" fill="white"/>
<path d="M426.61 107.014C424.854 105.042 422.762 103.602 420.315 102.686C417.868 101.77 414.721 100.863 410.883 99.9474C407.184 99.1342 404.439 98.3023 402.636 97.461C400.834 96.6198 399.937 95.3392 399.937 93.6099C399.937 91.8807 400.712 90.4879 402.272 89.4317C403.832 88.3754 406.241 87.8427 409.51 87.8427C414.161 87.8427 418.821 89.1606 423.481 91.8059L427.077 82.9447C424.77 81.5052 422.09 80.4022 419.017 79.6264C416.86 79.0842 414.674 78.7384 412.442 78.5795V68.4844H404.131V78.8505C401.814 79.187 399.723 79.7572 397.883 80.5611C394.689 81.9538 392.307 83.842 390.72 86.2162C389.132 88.5904 388.348 91.2451 388.348 94.1801C388.348 97.5452 389.225 100.237 390.972 102.247C392.728 104.266 394.829 105.733 397.276 106.64C399.723 107.556 402.87 108.463 406.708 109.379C409.202 109.958 411.182 110.482 412.648 110.968C414.114 111.445 415.309 112.08 416.243 112.875C417.177 113.669 417.644 114.669 417.644 115.866C417.644 117.502 416.85 118.81 415.272 119.792C413.684 120.773 411.238 121.269 407.932 121.269C404.952 121.269 401.983 120.792 399.003 119.829C396.024 118.866 393.456 117.595 391.299 116.015L387.339 124.802C389.599 126.531 392.578 127.933 396.304 129.018C398.854 129.756 401.46 130.242 404.14 130.476V139.645H412.452V130.373C415.123 130.055 417.513 129.448 419.596 128.55C422.809 127.157 425.218 125.269 426.834 122.895C428.44 120.521 429.243 117.885 429.243 115.006C429.234 111.65 428.356 108.986 426.61 107.014Z" fill="#FBFFFF"/>
<path d="M457.625 46.8057L350.652 153.873L358.127 161.354L465.1 54.2877L457.625 46.8057Z" fill="#333649"/>
<path d="M127.898 272.237L231.077 347.791L334.246 272.237H127.898Z" fill="#5966DC"/>
<path d="M231.077 184.317L334.246 272.238H127.898L231.077 184.317Z" fill="#7C87ED"/>
<path d="M313.449 205.036L162.62 184.95L152.708 259.504L303.537 279.59L313.449 205.036Z" fill="#9FC4D2"/>
<path d="M298.951 273.605L307.46 209.596L167.166 190.912L158.657 254.922L298.951 273.605Z" fill="#E6F6FC"/>
<path d="M256.846 235.412C258.603 222.272 249.383 210.194 236.255 208.437C223.126 206.679 211.059 215.906 209.303 229.046C207.546 242.187 216.766 254.264 229.894 256.022C243.023 257.78 255.09 248.552 256.846 235.412Z" fill="white"/>
<path d="M241.91 234.904C241.172 233.82 240.239 232.969 239.09 232.362C237.941 231.754 236.456 231.1 234.626 230.399C232.861 229.754 231.562 229.165 230.731 228.632C229.9 228.099 229.536 227.407 229.657 226.557C229.769 225.706 230.246 225.071 231.086 224.65C231.927 224.229 233.15 224.127 234.756 224.342C237.054 224.65 239.258 225.603 241.378 227.211L243.731 223.08C242.695 222.22 241.443 221.5 239.977 220.92C238.95 220.509 237.894 220.201 236.811 219.976L237.474 215.004L233.384 214.461L232.702 219.565C231.534 219.584 230.47 219.724 229.508 219.995C227.846 220.472 226.547 221.248 225.613 222.313C224.68 223.379 224.11 224.641 223.923 226.08C223.699 227.735 223.96 229.118 224.689 230.23C225.417 231.343 226.361 232.203 227.5 232.81C228.649 233.418 230.134 234.072 231.964 234.773C233.159 235.222 234.093 235.614 234.784 235.942C235.476 236.278 236.027 236.671 236.437 237.119C236.848 237.568 237.017 238.091 236.932 238.68C236.83 239.484 236.353 240.082 235.504 240.456C234.663 240.84 233.421 240.924 231.787 240.699C230.32 240.503 228.882 240.073 227.481 239.4C226.08 238.736 224.894 237.932 223.932 237.016L221.411 241.083C222.41 242.083 223.792 242.971 225.548 243.747C226.753 244.279 228.014 244.691 229.312 244.98L228.714 249.495L232.805 250.037L233.412 245.466C234.747 245.485 235.961 245.345 237.054 245.036C238.726 244.56 240.042 243.793 240.986 242.728C241.929 241.662 242.499 240.419 242.695 238.998C242.9 237.353 242.648 235.988 241.91 234.904Z" fill="#9FC4D2"/>
<path d="M175.75 202.085C179.67 199.082 180.416 193.468 177.416 189.544C174.417 185.621 168.807 184.874 164.887 187.876C160.967 190.878 160.22 196.493 163.22 200.416C166.22 204.34 171.829 205.087 175.75 202.085Z" fill="#9FC4D2"/>
<path d="M168.193 258.902C172.113 255.9 172.859 250.285 169.86 246.362C166.86 242.438 161.25 241.691 157.33 244.693C153.41 247.696 152.664 253.31 155.663 257.234C158.663 261.157 164.272 261.904 168.193 258.902Z" fill="#9FC4D2"/>
<path d="M303.1 221.611C308.036 221.611 312.038 217.607 312.038 212.666C312.038 207.726 308.036 203.721 303.1 203.721C298.164 203.721 294.163 207.726 294.163 212.666C294.163 217.607 298.164 221.611 303.1 221.611Z" fill="#9FC4D2"/>
<path d="M301.791 275.852C305.314 272.392 305.367 266.728 301.91 263.202C298.453 259.676 292.794 259.623 289.272 263.083C285.749 266.544 285.695 272.207 289.153 275.733C292.61 279.259 298.268 279.312 301.791 275.852Z" fill="#C5CAEF"/>
<path d="M302.904 251.842H150.751V327.051H302.904V251.842Z" fill="#9FC4D2"/>
<path d="M297.594 321.735V257.164H156.069V321.735H297.594Z" fill="#E6F6FC"/>
<path d="M236.029 311.623C248.266 306.55 254.077 292.508 249.008 280.26C243.939 268.012 229.91 262.195 217.672 267.269C205.435 272.342 199.624 286.384 204.693 298.632C209.762 310.88 223.791 316.697 236.029 311.623Z" fill="white"/>
<path d="M235.933 290.905C235.065 289.923 234.019 289.213 232.805 288.755C231.591 288.306 230.022 287.848 228.116 287.39C226.277 286.988 224.913 286.577 224.016 286.156C223.12 285.735 222.672 285.1 222.672 284.24C222.672 283.38 223.055 282.688 223.83 282.165C224.605 281.641 225.8 281.38 227.425 281.38C229.741 281.38 232.048 282.034 234.364 283.352L236.148 278.949C234.999 278.23 233.664 277.687 232.142 277.304C231.068 277.033 229.984 276.865 228.873 276.781V271.761H224.745V276.912C223.596 277.08 222.56 277.36 221.644 277.762C220.057 278.454 218.871 279.389 218.086 280.576C217.302 281.754 216.909 283.081 216.909 284.53C216.909 286.203 217.348 287.54 218.217 288.54C219.085 289.54 220.131 290.269 221.345 290.727C222.56 291.185 224.119 291.634 226.034 292.092C227.276 292.381 228.256 292.643 228.985 292.877C229.713 293.12 230.311 293.428 230.778 293.821C231.245 294.213 231.478 294.709 231.478 295.307C231.478 296.12 231.086 296.765 230.302 297.261C229.517 297.747 228.294 297.999 226.65 297.999C225.175 297.999 223.69 297.756 222.214 297.279C220.738 296.803 219.459 296.167 218.385 295.382L216.414 299.747C217.535 300.607 219.02 301.308 220.869 301.841C222.139 302.205 223.437 302.448 224.764 302.561V307.122H228.892V302.514C230.218 302.355 231.404 302.056 232.44 301.607C234.037 300.916 235.233 299.981 236.036 298.794C236.839 297.616 237.231 296.307 237.231 294.877C237.241 293.213 236.811 291.886 235.933 290.905Z" fill="#9FC4D2"/>
<path d="M168.392 262.869C169.527 258.061 166.552 253.243 161.748 252.108C156.944 250.973 152.131 253.95 150.996 258.758C149.862 263.566 152.837 268.384 157.641 269.519C162.444 270.654 167.258 267.677 168.392 262.869Z" fill="#9FC4D2"/>
<path d="M159.698 327.051C164.634 327.051 168.635 323.046 168.635 318.106C168.635 313.165 164.634 309.16 159.698 309.16C154.762 309.16 150.76 313.165 150.76 318.106C150.76 323.046 154.762 327.051 159.698 327.051Z" fill="#C5CAEF"/>
<path d="M302.368 262.876C303.503 258.068 300.528 253.25 295.724 252.115C290.92 250.979 286.107 253.957 284.972 258.765C283.838 263.573 286.813 268.391 291.616 269.526C296.42 270.661 301.234 267.684 302.368 262.876Z" fill="#9FC4D2"/>
<path d="M293.668 327.051C298.604 327.051 302.605 323.046 302.605 318.106C302.605 313.165 298.604 309.16 293.668 309.16C288.732 309.16 284.73 313.165 284.73 318.106C284.73 323.046 288.732 327.051 293.668 327.051Z" fill="#C5CAEF"/>
<path d="M311.851 280.5H159.698V355.709H311.851V280.5Z" fill="#9FC4D2"/>
<path d="M306.533 350.392V285.821H165.008V350.392H306.533Z" fill="#E6F6FC"/>
<path d="M259.112 323.654C262.156 310.752 254.173 297.823 241.283 294.777C228.393 291.73 215.476 299.72 212.432 312.621C209.388 325.523 217.37 338.452 230.261 341.498C243.151 344.544 256.068 336.555 259.112 323.654Z" fill="white"/>
<path d="M244.88 319.562C244.012 318.581 242.966 317.87 241.752 317.412C240.538 316.964 238.969 316.506 237.063 316.048C235.224 315.646 233.86 315.234 232.964 314.814C232.067 314.393 231.619 313.758 231.619 312.898C231.619 312.038 232.002 311.346 232.777 310.822C233.552 310.299 234.747 310.037 236.372 310.037C238.688 310.037 240.995 310.692 243.311 312.01L245.095 307.607C243.946 306.887 242.611 306.345 241.089 305.962C240.015 305.691 238.931 305.523 237.82 305.438V300.419H233.692V305.569C232.543 305.738 231.507 306.018 230.591 306.42C229.004 307.112 227.818 308.046 227.033 309.233C226.249 310.411 225.857 311.739 225.857 313.187C225.857 314.861 226.295 316.197 227.164 317.197C228.033 318.197 229.079 318.927 230.293 319.385C231.507 319.843 233.066 320.291 234.981 320.749C236.223 321.039 237.204 321.301 237.932 321.534C238.66 321.777 239.258 322.086 239.725 322.479C240.192 322.871 240.426 323.367 240.426 323.965C240.426 324.778 240.033 325.423 239.249 325.918C238.464 326.404 237.241 326.657 235.597 326.657C234.122 326.657 232.637 326.414 231.161 325.937C229.686 325.46 228.406 324.825 227.332 324.04L225.362 328.405C226.482 329.265 227.967 329.966 229.816 330.498C231.086 330.863 232.385 331.106 233.711 331.218V335.78H237.839V331.172C239.165 331.013 240.351 330.713 241.387 330.265C242.984 329.573 244.18 328.638 244.983 327.451C245.786 326.274 246.178 324.965 246.178 323.535C246.178 321.871 245.749 320.544 244.88 319.562Z" fill="#9FC4D2"/>
<path d="M168.636 298.391C173.572 298.391 177.573 294.386 177.573 289.446C177.573 284.505 173.572 280.5 168.636 280.5C163.7 280.5 159.698 284.505 159.698 289.446C159.698 294.386 163.7 298.391 168.636 298.391Z" fill="#C5CAEF"/>
<path d="M168.636 355.709C173.572 355.709 177.573 351.704 177.573 346.763C177.573 341.823 173.572 337.818 168.636 337.818C163.7 337.818 159.698 341.823 159.698 346.763C159.698 351.704 163.7 355.709 168.636 355.709Z" fill="#C5CAEF"/>
<path d="M302.605 298.391C307.541 298.391 311.543 294.386 311.543 289.445C311.543 284.505 307.541 280.5 302.605 280.5C297.669 280.5 293.668 284.505 293.668 289.445C293.668 294.386 297.669 298.391 302.605 298.391Z" fill="#9FC4D2"/>
<path d="M302.605 355.709C307.541 355.709 311.543 351.704 311.543 346.763C311.543 341.823 307.541 337.818 302.605 337.818C297.669 337.818 293.668 341.823 293.668 346.763C293.668 351.704 297.669 355.709 302.605 355.709Z" fill="#C5CAEF"/>
<path d="M334.246 407.548V272.237L249.242 334.49L334.246 407.548Z" fill="#7C87ED"/>
<path d="M127.898 407.548V272.237L212.903 334.49L127.898 407.548Z" fill="#7C87ED"/>
<path d="M249.241 334.49L231.077 347.791L212.903 334.49L127.898 407.549H334.246L249.241 334.49Z" fill="#D3D7FD"/>
<path d="M473.016 343.099H246.048V375.329H473.016V343.099Z" fill="#CDE0E7"/>
<path d="M473.016 367.776H246.048V375.319H473.016V367.776Z" fill="#AFD1DD"/>
<path d="M405.532 343.099H313.541V375.329H405.532V343.099Z" fill="white"/>
<path d="M405.532 367.776H313.541V375.319H405.532V367.776Z" fill="#CDE0E7"/>
<path d="M318.641 343.099H313.541V375.329H318.641V343.099Z" fill="#9FC4D2"/>
<path d="M405.532 343.099H400.433V375.329H405.532V343.099Z" fill="#9FC4D2"/>
<path d="M492.404 310.87H265.436V343.1H492.404V310.87Z" fill="#CDE0E7"/>
<path d="M492.404 335.547H265.436V343.091H492.404V335.547Z" fill="#AFD1DD"/>
<path d="M424.919 310.87H332.929V343.1H424.919V310.87Z" fill="white"/>
<path d="M424.919 335.547H332.929V343.091H424.919V335.547Z" fill="#CDE0E7"/>
<path d="M338.028 310.87H332.929V343.1H338.028V310.87Z" fill="#9FC4D2"/>
<path d="M424.91 310.87H419.811V343.1H424.91V310.87Z" fill="#9FC4D2"/>
<path d="M481.328 375.328H254.359V407.558H481.328V375.328Z" fill="#CDE0E7"/>
<path d="M481.328 400.005H254.359V407.549H481.328V400.005Z" fill="#AFD1DD"/>
<path d="M413.843 375.328H321.853V407.558H413.843V375.328Z" fill="white"/>
<path d="M413.843 399.874H321.853V407.548H413.843V399.874Z" fill="#CDE0E7"/>
<path d="M326.952 375.328H321.853V407.558H326.952V375.328Z" fill="#9FC4D2"/>
<path d="M413.843 375.328H408.744V407.558H413.843V375.328Z" fill="#9FC4D2"/>
<path d="M118.068 407.856H195.723C196.536 407.856 197.199 407.192 197.199 406.379V397.499C197.199 396.686 196.536 396.022 195.723 396.022H118.068C117.256 396.022 116.593 396.686 116.593 397.499V406.379C116.593 407.192 117.246 407.856 118.068 407.856Z" fill="#EB9A20"/>
<path d="M108.44 396.022H186.095C186.907 396.022 187.57 395.358 187.57 394.545V385.665C187.57 384.852 186.907 384.188 186.095 384.188H108.44C107.627 384.188 106.964 384.852 106.964 385.665V394.545C106.964 395.368 107.627 396.022 108.44 396.022Z" fill="#FFB547"/>
<path d="M125.008 384.197H202.662C203.475 384.197 204.138 383.534 204.138 382.721V373.841C204.138 373.027 203.475 372.364 202.662 372.364H125.008C124.195 372.364 123.532 373.027 123.532 373.841V382.721C123.532 383.543 124.195 384.197 125.008 384.197Z" fill="#EB9A20"/>
<path d="M189.016 372.292H111.362C110.549 372.292 109.886 371.628 109.886 370.815V361.935C109.886 361.122 110.549 360.458 111.362 360.458H189.016C189.829 360.458 190.492 361.122 190.492 361.935V370.815C190.482 371.628 189.829 372.292 189.016 372.292Z" fill="#FFB547"/>
<path d="M98.3817 360.577H176.036C176.849 360.577 177.512 359.913 177.512 359.1V350.22C177.512 349.407 176.849 348.743 176.036 348.743H98.3817C97.5692 348.743 96.9061 349.407 96.9061 350.22V359.1C96.9155 359.913 97.5692 360.577 98.3817 360.577Z" fill="#EB9A20"/>
<path d="M119.739 348.633H197.394C198.206 348.633 198.869 347.97 198.869 347.157V338.277C198.869 337.463 198.206 336.8 197.394 336.8H119.739C118.926 336.8 118.263 337.463 118.263 338.277V347.157C118.263 347.979 118.917 348.633 119.739 348.633Z" fill="#FFB547"/>
<path d="M155.509 337.208C177.822 337.208 195.91 319.104 195.91 296.772C195.91 274.439 177.822 256.335 155.509 256.335C133.196 256.335 115.108 274.439 115.108 296.772C115.108 319.104 133.196 337.208 155.509 337.208Z" fill="#FFB547"/>
<path d="M155.509 327.393C172.406 327.393 186.104 313.683 186.104 296.771C186.104 279.859 172.406 266.149 155.509 266.149C138.612 266.149 124.914 279.859 124.914 296.771C124.914 313.683 138.612 327.393 155.509 327.393Z" fill="#FFB547"/>
<path d="M155.509 330.899C136.709 330.899 121.412 315.588 121.412 296.772C121.412 277.956 136.709 262.645 155.509 262.645C174.309 262.645 189.606 277.956 189.606 296.772C189.615 315.588 174.318 330.899 155.509 330.899ZM155.509 266.15C138.643 266.15 124.914 279.891 124.914 296.772C124.914 313.653 138.643 327.394 155.509 327.394C172.375 327.394 186.104 313.653 186.104 296.772C186.104 279.881 172.385 266.15 155.509 266.15Z" fill="white"/>
<path d="M167.939 298.435C166.753 297.099 165.324 296.117 163.662 295.5C162 294.883 159.87 294.266 157.265 293.64C154.752 293.089 152.894 292.528 151.67 291.958C150.447 291.387 149.84 290.518 149.84 289.34C149.84 288.163 150.372 287.219 151.428 286.508C152.483 285.788 154.127 285.433 156.34 285.433C159.497 285.433 162.653 286.331 165.819 288.125L168.257 282.115C166.697 281.133 164.867 280.386 162.784 279.862C161.318 279.498 159.833 279.264 158.329 279.152V272.31H152.688V279.339C151.119 279.572 149.7 279.956 148.448 280.498C146.282 281.442 144.666 282.722 143.592 284.33C142.518 285.947 141.976 287.742 141.976 289.733C141.976 292.014 142.574 293.836 143.76 295.21C144.946 296.575 146.375 297.575 148.038 298.192C149.7 298.809 151.829 299.435 154.435 300.052C156.125 300.445 157.47 300.8 158.46 301.127C159.45 301.454 160.262 301.884 160.898 302.427C161.533 302.969 161.85 303.642 161.85 304.455C161.85 305.567 161.308 306.455 160.234 307.119C159.16 307.783 157.498 308.119 155.257 308.119C153.239 308.119 151.222 307.792 149.205 307.138C147.188 306.483 145.441 305.623 143.975 304.548L141.285 310.512C142.817 311.68 144.844 312.634 147.365 313.372C149.093 313.877 150.867 314.204 152.679 314.363V320.588H158.32V314.298C160.132 314.083 161.757 313.671 163.167 313.054C165.352 312.11 166.987 310.83 168.079 309.213C169.172 307.596 169.714 305.82 169.714 303.857C169.723 301.576 169.135 299.763 167.939 298.435Z" fill="#FBFFFF"/>
<g opacity="0.3">
<path opacity="0.3" d="M239.633 112.54H175.478C172.21 112.54 169.562 109.717 169.562 106.235V50.7059C169.562 47.2247 172.21 44.4009 175.478 44.4009H239.633C242.902 44.4009 245.549 47.2247 245.549 50.7059V106.232C245.553 109.717 242.902 112.54 239.633 112.54Z" fill="white"/>
<path opacity="0.3" d="M239.325 112.129H175.17C171.901 112.129 169.254 109.305 169.254 105.824V50.2947C169.254 46.8136 171.901 43.9897 175.17 43.9897H239.325C242.593 43.9897 245.241 46.8136 245.241 50.2947V105.821C245.244 109.305 242.593 112.129 239.325 112.129Z" fill="url(#paint3_linear_65_4432)"/>
<path opacity="0.3" d="M239.016 111.718H174.861C171.593 111.718 168.945 108.894 168.945 105.413V49.8836C168.945 46.4025 171.593 43.5786 174.861 43.5786H239.016C242.284 43.5786 244.932 46.4025 244.932 49.8836V105.409C244.936 108.894 242.284 111.718 239.016 111.718Z" fill="url(#paint4_linear_65_4432)"/>
<path opacity="0.3" d="M238.708 111.307H174.553C171.285 111.307 168.637 108.483 168.637 105.002V49.472C168.637 45.9908 171.285 43.167 174.553 43.167H238.708C241.976 43.167 244.624 45.9908 244.624 49.472V105.002C244.627 108.483 241.976 111.307 238.708 111.307Z" fill="url(#paint5_linear_65_4432)"/>
<path opacity="0.3" d="M238.399 110.892H174.244C170.976 110.892 168.328 108.068 168.328 104.587V49.0613C168.328 45.5802 170.976 42.7563 174.244 42.7563H238.399C241.668 42.7563 244.315 45.5802 244.315 49.0613V104.587C244.319 108.072 241.668 110.892 238.399 110.892Z" fill="url(#paint6_linear_65_4432)"/>
<path opacity="0.3" d="M238.091 110.481H173.936C170.668 110.481 168.02 107.657 168.02 104.176V48.6497C168.02 45.1686 170.668 42.3447 173.936 42.3447H238.091C241.359 42.3447 244.007 45.1686 244.007 48.6497V104.176C244.01 107.66 241.359 110.481 238.091 110.481Z" fill="url(#paint7_linear_65_4432)"/>
<path opacity="0.3" d="M237.783 110.069H173.627C170.359 110.069 167.712 107.246 167.712 103.764V48.2386C167.712 44.7574 170.359 41.9336 173.627 41.9336H237.783C241.051 41.9336 243.698 44.7574 243.698 48.2386V103.764C243.702 107.249 241.051 110.069 237.783 110.069Z" fill="url(#paint8_linear_65_4432)"/>
<path opacity="0.3" d="M237.474 109.658H173.319C170.051 109.658 167.403 106.834 167.403 103.353V47.827C167.403 44.3458 170.051 41.522 173.319 41.522H237.474C240.742 41.522 243.39 44.3458 243.39 47.827V103.353C243.393 106.838 240.742 109.658 237.474 109.658Z" fill="url(#paint9_linear_65_4432)"/>
<path opacity="0.3" d="M237.166 109.247H173.01C169.742 109.247 167.095 106.423 167.095 102.942V47.4158C167.095 43.9347 169.742 41.1108 173.01 41.1108H237.166C240.434 41.1108 243.081 43.9347 243.081 47.4158V102.942C243.081 106.426 240.434 109.247 237.166 109.247Z" fill="url(#paint10_linear_65_4432)"/>
<path opacity="0.3" d="M236.857 108.836H172.702C169.434 108.836 166.786 106.012 166.786 102.531V47.0047C166.786 43.5235 169.434 40.6997 172.702 40.6997H236.857C240.125 40.6997 242.773 43.5235 242.773 47.0047V102.531C242.773 106.015 240.125 108.836 236.857 108.836Z" fill="url(#paint11_linear_65_4432)"/>
<path opacity="0.3" d="M236.549 108.424H172.393C169.125 108.424 166.478 105.6 166.478 102.119V46.5931C166.478 43.1119 169.125 40.2881 172.393 40.2881H236.549C239.817 40.2881 242.464 43.1119 242.464 46.5931V102.119C242.464 105.604 239.817 108.424 236.549 108.424Z" fill="url(#paint12_linear_65_4432)"/>
<path opacity="0.3" d="M236.24 108.013H172.085C168.817 108.013 166.169 105.189 166.169 101.708V46.182C166.169 42.7008 168.817 39.877 172.085 39.877H236.24C239.508 39.877 242.156 42.7008 242.156 46.182V101.708C242.156 105.189 239.508 108.013 236.24 108.013Z" fill="url(#paint13_linear_65_4432)"/>
<path opacity="0.3" d="M235.932 107.601H171.777C168.508 107.601 165.861 104.777 165.861 101.296V45.7703C165.861 42.2892 168.508 39.4653 171.777 39.4653H235.932C239.2 39.4653 241.848 42.2892 241.848 45.7703V101.296C241.848 104.777 239.2 107.601 235.932 107.601Z" fill="url(#paint14_linear_65_4432)"/>
<path opacity="0.3" d="M235.623 107.19H171.464C168.196 107.19 165.549 104.366 165.549 100.885V45.3592C165.549 41.878 168.196 39.0542 171.464 39.0542H235.62C238.888 39.0542 241.535 41.878 241.535 45.3592V100.885C241.539 104.366 238.892 107.19 235.623 107.19Z" fill="url(#paint15_linear_65_4432)"/>
<path opacity="0.3" d="M235.315 106.778H171.156C167.888 106.778 165.24 103.955 165.24 100.473V44.9476C165.24 41.4664 167.888 38.6426 171.156 38.6426H235.315C238.583 38.6426 241.231 41.4664 241.231 44.9476V100.473C241.231 103.955 238.583 106.778 235.315 106.778Z" fill="url(#paint16_linear_65_4432)"/>
<path opacity="0.3" d="M235.006 106.368H170.848C167.579 106.368 164.932 103.544 164.932 100.063V44.5369C164.932 41.0558 167.579 38.2319 170.848 38.2319H235.003C238.271 38.2319 240.919 41.0558 240.919 44.5369V100.063C240.922 103.544 238.275 106.368 235.006 106.368Z" fill="url(#paint17_linear_65_4432)"/>
<path opacity="0.3" d="M234.698 105.956H170.539C167.271 105.956 164.623 103.132 164.623 99.6511V44.1253C164.623 40.6441 167.271 37.8203 170.539 37.8203H234.694C237.962 37.8203 240.61 40.6441 240.61 44.1253V99.6511C240.614 103.132 237.966 105.956 234.698 105.956Z" fill="url(#paint18_linear_65_4432)"/>
<path opacity="0.3" d="M234.39 105.545H170.231C166.963 105.545 164.315 102.721 164.315 99.24V43.7142C164.315 40.233 166.963 37.4092 170.231 37.4092H234.386C237.654 37.4092 240.302 40.233 240.302 43.7142V99.24C240.305 102.721 237.658 105.545 234.39 105.545Z" fill="url(#paint19_linear_65_4432)"/>
<path opacity="0.3" d="M234.081 105.134H169.922C166.654 105.134 164.006 102.31 164.006 98.8291V43.2996C164.006 39.8185 166.654 36.9946 169.922 36.9946H234.077C237.346 36.9946 239.993 39.8185 239.993 43.2996V98.8255C239.997 102.31 237.349 105.134 234.081 105.134Z" fill="url(#paint20_linear_65_4432)"/>
<path opacity="0.3" d="M233.773 104.723H169.614C166.345 104.723 163.698 101.899 163.698 98.418V42.8885C163.698 39.4073 166.345 36.5835 169.614 36.5835H233.773C237.041 36.5835 239.688 39.4073 239.688 42.8885V98.4143C239.688 101.899 237.041 104.723 233.773 104.723Z" fill="url(#paint21_linear_65_4432)"/>
<path opacity="0.3" d="M233.464 104.311H169.305C166.037 104.311 163.39 101.488 163.39 98.0064V42.4769C163.39 38.9957 166.037 36.1719 169.305 36.1719H233.461C236.729 36.1719 239.376 38.9957 239.376 42.4769V98.0027C239.38 101.488 236.732 104.311 233.464 104.311Z" fill="url(#paint22_linear_65_4432)"/>
<path opacity="0.3" d="M233.156 103.9H168.997C165.729 103.9 163.081 101.076 163.081 97.5952V42.0657C163.081 38.5846 165.729 35.7607 168.997 35.7607H233.152C236.42 35.7607 239.068 38.5846 239.068 42.0657V97.5916C239.071 101.076 236.424 103.9 233.156 103.9Z" fill="url(#paint23_linear_65_4432)"/>
</g>
<path d="M233.303 104.013H169.144C165.876 104.013 163.228 101.189 163.228 97.7076V42.178C163.228 38.6969 165.876 35.873 169.144 35.873H233.299C236.567 35.873 239.215 38.6969 239.215 42.178V97.7039C239.219 101.189 236.571 104.013 233.303 104.013Z" fill="white"/>
<path opacity="0.3" d="M232.76 44.7876H170.36V95.5986H232.76V44.7876Z" fill="url(#paint24_linear_65_4432)"/>
<path d="M185.053 74.514H191.713L191.407 72.48H185.359L185.053 74.514ZM188.347 68.862L190.237 73.236L190.201 73.884L191.821 77.376H194.737L188.347 64.038L181.957 77.376H184.855L186.511 73.776L186.457 73.2L188.347 68.862ZM198.876 70.302L202.53 76.206L206.184 70.302L206.994 77.376H209.676L207.804 64.146L202.53 72.282L197.256 64.146L195.384 77.376H198.066L198.876 70.302ZM211.696 64.776V77.376H219.292V75.126H214.27V64.776H211.696Z" fill="#063A78"/>
<g opacity="0.3">
<path opacity="0.3" d="M602.442 253.479H538.287C535.019 253.479 532.371 250.655 532.371 247.174V191.644C532.371 188.163 535.019 185.339 538.287 185.339H602.442C605.711 185.339 608.358 188.163 608.358 191.644V247.17C608.362 250.655 605.711 253.479 602.442 253.479Z" fill="white"/>
<path opacity="0.3" d="M602.134 253.068H537.978C534.71 253.068 532.063 250.244 532.063 246.763V191.233C532.063 187.752 534.71 184.928 537.978 184.928H602.134C605.402 184.928 608.05 187.752 608.05 191.233V246.759C608.053 250.244 605.402 253.068 602.134 253.068Z" fill="url(#paint25_linear_65_4432)"/>
<path opacity="0.3" d="M601.825 252.657H537.67C534.402 252.657 531.754 249.833 531.754 246.352V190.822C531.754 187.341 534.402 184.517 537.67 184.517H601.825C605.093 184.517 607.741 187.341 607.741 190.822V246.348C607.745 249.833 605.093 252.657 601.825 252.657Z" fill="url(#paint26_linear_65_4432)"/>
<path opacity="0.3" d="M601.517 252.245H537.362C534.093 252.245 531.446 249.421 531.446 245.94V190.41C531.446 186.929 534.093 184.105 537.362 184.105H601.517C604.785 184.105 607.433 186.929 607.433 190.41V245.94C607.436 249.421 604.785 252.245 601.517 252.245Z" fill="url(#paint27_linear_65_4432)"/>
<path opacity="0.3" d="M601.208 251.831H537.053C533.785 251.831 531.137 249.007 531.137 245.526V190C531.137 186.519 533.785 183.695 537.053 183.695H601.208C604.477 183.695 607.124 186.519 607.124 190V245.526C607.128 249.01 604.477 251.831 601.208 251.831Z" fill="url(#paint28_linear_65_4432)"/>
<path opacity="0.3" d="M600.9 251.419H536.745C533.476 251.419 530.829 248.596 530.829 245.114V189.589C530.829 186.108 533.476 183.284 536.745 183.284H600.9C604.168 183.284 606.816 186.108 606.816 189.589V245.114C606.819 248.599 604.168 251.419 600.9 251.419Z" fill="url(#paint29_linear_65_4432)"/>
<path opacity="0.3" d="M600.592 251.008H536.436C533.168 251.008 530.521 248.184 530.521 244.703V189.177C530.521 185.696 533.168 182.872 536.436 182.872H600.592C603.86 182.872 606.507 185.696 606.507 189.177V244.703C606.511 248.188 603.86 251.008 600.592 251.008Z" fill="url(#paint30_linear_65_4432)"/>
<path opacity="0.3" d="M600.283 250.597H536.128C532.86 250.597 530.212 247.773 530.212 244.292V188.766C530.212 185.285 532.86 182.461 536.128 182.461H600.283C603.551 182.461 606.199 185.285 606.199 188.766V244.292C606.202 247.777 603.551 250.597 600.283 250.597Z" fill="url(#paint31_linear_65_4432)"/>
<path opacity="0.3" d="M599.974 250.185H535.819C532.551 250.185 529.903 247.361 529.903 243.88V188.354C529.903 184.873 532.551 182.049 535.819 182.049H599.974C603.243 182.049 605.89 184.873 605.89 188.354V243.88C605.89 247.365 603.243 250.185 599.974 250.185Z" fill="url(#paint32_linear_65_4432)"/>
<path opacity="0.3" d="M599.666 249.774H535.511C532.243 249.774 529.595 246.95 529.595 243.469V187.943C529.595 184.462 532.243 181.638 535.511 181.638H599.666C602.934 181.638 605.582 184.462 605.582 187.943V243.469C605.582 246.954 602.934 249.774 599.666 249.774Z" fill="url(#paint33_linear_65_4432)"/>
<path opacity="0.3" d="M599.358 249.362H535.202C531.934 249.362 529.286 246.538 529.286 243.057V187.532C529.286 184.05 531.934 181.227 535.202 181.227H599.358C602.626 181.227 605.273 184.05 605.273 187.532V243.057C605.273 246.542 602.626 249.362 599.358 249.362Z" fill="url(#paint34_linear_65_4432)"/>
<path opacity="0.3" d="M599.049 248.951H534.894C531.626 248.951 528.978 246.127 528.978 242.646V187.12C528.978 183.639 531.626 180.815 534.894 180.815H599.049C602.317 180.815 604.965 183.639 604.965 187.12V242.646C604.965 246.127 602.317 248.951 599.049 248.951Z" fill="url(#paint35_linear_65_4432)"/>
<path opacity="0.3" d="M598.741 248.54H534.586C531.317 248.54 528.67 245.716 528.67 242.235V186.709C528.67 183.228 531.317 180.404 534.586 180.404H598.741C602.009 180.404 604.657 183.228 604.657 186.709V242.235C604.657 245.716 602.009 248.54 598.741 248.54Z" fill="url(#paint36_linear_65_4432)"/>
<path opacity="0.3" d="M598.432 248.128H534.273C531.005 248.128 528.358 245.305 528.358 241.823V186.298C528.358 182.817 531.005 179.993 534.273 179.993H598.429C601.697 179.993 604.344 182.817 604.344 186.298V241.823C604.348 245.305 601.7 248.128 598.432 248.128Z" fill="url(#paint37_linear_65_4432)"/>
<path opacity="0.3" d="M598.124 247.717H533.965C530.697 247.717 528.049 244.893 528.049 241.412V185.886C528.049 182.405 530.697 179.581 533.965 179.581H598.124C601.392 179.581 604.039 182.405 604.039 185.886V241.412C604.039 244.893 601.392 247.717 598.124 247.717Z" fill="url(#paint38_linear_65_4432)"/>
<path opacity="0.3" d="M597.815 247.306H533.656C530.388 247.306 527.741 244.482 527.741 241.001V185.475C527.741 181.994 530.388 179.17 533.656 179.17H597.812C601.08 179.17 603.727 181.994 603.727 185.475V241.001C603.731 244.482 601.083 247.306 597.815 247.306Z" fill="url(#paint39_linear_65_4432)"/>
<path opacity="0.3" d="M597.507 246.895H533.348C530.08 246.895 527.432 244.071 527.432 240.59V185.064C527.432 181.583 530.08 178.759 533.348 178.759H597.503C600.771 178.759 603.419 181.583 603.419 185.064V240.59C603.423 244.071 600.775 246.895 597.507 246.895Z" fill="url(#paint40_linear_65_4432)"/>
<path opacity="0.3" d="M597.198 246.483H533.04C529.771 246.483 527.124 243.66 527.124 240.178V184.653C527.124 181.172 529.771 178.348 533.04 178.348H597.195C600.463 178.348 603.111 181.172 603.111 184.653V240.178C603.114 243.66 600.467 246.483 597.198 246.483Z" fill="url(#paint41_linear_65_4432)"/>
<path opacity="0.3" d="M596.89 246.073H532.731C529.463 246.073 526.815 243.249 526.815 239.768V184.238C526.815 180.757 529.463 177.933 532.731 177.933H596.886C600.154 177.933 602.802 180.757 602.802 184.238V239.764C602.806 243.249 600.158 246.073 596.89 246.073Z" fill="url(#paint42_linear_65_4432)"/>
<path opacity="0.3" d="M596.581 245.661H532.422C529.154 245.661 526.507 242.838 526.507 239.356V183.827C526.507 180.346 529.154 177.522 532.422 177.522H596.581C599.85 177.522 602.497 180.346 602.497 183.827V239.353C602.497 242.838 599.85 245.661 596.581 245.661Z" fill="url(#paint43_linear_65_4432)"/>
<path opacity="0.3" d="M596.273 245.25H532.114C528.846 245.25 526.198 242.426 526.198 238.945V183.415C526.198 179.934 528.846 177.11 532.114 177.11H596.269C599.538 177.11 602.185 179.934 602.185 183.415V238.941C602.189 242.426 599.541 245.25 596.273 245.25Z" fill="url(#paint44_linear_65_4432)"/>
<path opacity="0.3" d="M595.965 244.839H531.806C528.537 244.839 525.89 242.015 525.89 238.534V183.004C525.89 179.523 528.537 176.699 531.806 176.699H595.961C599.229 176.699 601.877 179.523 601.877 183.004V238.53C601.88 242.015 599.233 244.839 595.965 244.839Z" fill="url(#paint45_linear_65_4432)"/>
</g>
<path d="M596.113 244.952H531.954C528.686 244.952 526.038 242.128 526.038 238.647V183.117C526.038 179.636 528.686 176.812 531.954 176.812H596.109C599.377 176.812 602.025 179.636 602.025 183.117V238.643C602.028 242.128 599.381 244.952 596.113 244.952Z" fill="white"/>
<path opacity="0.3" d="M595.569 185.726H533.169V236.537H595.569V185.726Z" fill="url(#paint46_linear_65_4432)"/>
<path d="M549.29 211.924H551.558C552.398 211.924 553.136 211.81 553.772 211.582C554.408 211.342 554.906 210.994 555.266 210.538C555.626 210.082 555.806 209.536 555.806 208.9C555.806 208.18 555.626 207.586 555.266 207.118C554.906 206.65 554.408 206.302 553.772 206.074C553.136 205.834 552.398 205.714 551.558 205.714H547.364V218.314H551.828C552.764 218.314 553.586 218.188 554.294 217.936C555.002 217.684 555.548 217.294 555.932 216.766C556.328 216.238 556.526 215.56 556.526 214.732C556.526 214.108 556.394 213.574 556.13 213.13C555.878 212.686 555.53 212.326 555.086 212.05C554.642 211.762 554.138 211.552 553.574 211.42C553.022 211.288 552.44 211.222 551.828 211.222H549.29V212.626H551.594C551.918 212.626 552.218 212.662 552.494 212.734C552.77 212.794 553.01 212.902 553.214 213.058C553.43 213.202 553.592 213.388 553.7 213.616C553.82 213.832 553.88 214.096 553.88 214.408C553.88 214.84 553.778 215.194 553.574 215.47C553.382 215.746 553.112 215.95 552.764 216.082C552.416 216.202 552.026 216.262 551.594 216.262H549.938V207.766H551.324C551.888 207.766 552.332 207.892 552.656 208.144C552.992 208.396 553.16 208.762 553.16 209.242C553.16 209.554 553.082 209.824 552.926 210.052C552.782 210.28 552.572 210.454 552.296 210.574C552.02 210.694 551.696 210.754 551.324 210.754H549.29V211.924ZM559.818 214.084L557.982 215.38C558.258 215.968 558.642 216.514 559.134 217.018C559.626 217.522 560.202 217.924 560.862 218.224C561.534 218.512 562.254 218.656 563.022 218.656C563.598 218.656 564.144 218.566 564.66 218.386C565.188 218.218 565.662 217.972 566.082 217.648C566.502 217.312 566.832 216.904 567.072 216.424C567.312 215.944 567.432 215.398 567.432 214.786C567.432 214.246 567.342 213.772 567.162 213.364C566.994 212.944 566.754 212.584 566.442 212.284C566.142 211.972 565.8 211.708 565.416 211.492C565.044 211.276 564.654 211.096 564.246 210.952C563.61 210.736 563.082 210.526 562.662 210.322C562.242 210.106 561.93 209.884 561.726 209.656C561.522 209.416 561.42 209.14 561.42 208.828C561.42 208.516 561.546 208.246 561.798 208.018C562.05 207.778 562.428 207.658 562.932 207.658C563.316 207.658 563.658 207.736 563.958 207.892C564.258 208.036 564.522 208.234 564.75 208.486C564.99 208.726 565.194 208.996 565.362 209.296L567.378 208.18C567.162 207.736 566.856 207.31 566.46 206.902C566.076 206.482 565.59 206.14 565.002 205.876C564.426 205.6 563.736 205.462 562.932 205.462C562.152 205.462 561.444 205.606 560.808 205.894C560.184 206.17 559.686 206.572 559.314 207.1C558.954 207.616 558.774 208.234 558.774 208.954C558.774 209.554 558.888 210.07 559.116 210.502C559.344 210.922 559.632 211.282 559.98 211.582C560.328 211.87 560.694 212.11 561.078 212.302C561.474 212.482 561.822 212.626 562.122 212.734C562.686 212.95 563.16 213.154 563.544 213.346C563.94 213.526 564.234 213.736 564.426 213.976C564.63 214.216 564.732 214.534 564.732 214.93C564.732 215.386 564.57 215.746 564.246 216.01C563.922 216.274 563.502 216.406 562.986 216.406C562.542 216.406 562.128 216.31 561.744 216.118C561.36 215.926 561.006 215.656 560.682 215.308C560.37 214.96 560.082 214.552 559.818 214.084ZM571.276 215.452H577.936L577.63 213.418H571.582L571.276 215.452ZM574.57 209.8L576.46 214.174L576.424 214.822L578.044 218.314H580.96L574.57 204.976L568.18 218.314H571.078L572.734 214.714L572.68 214.138L574.57 209.8Z" fill="#063A78"/>
<defs>
<linearGradient id="paint0_linear_65_4432" x1="306.029" y1="93.5786" x2="306.029" y2="408.09" gradientUnits="userSpaceOnUse">
<stop stop-color="#DCF1F8"/>
<stop offset="1" stop-color="#EFF1FE" stop-opacity="0"/>
</linearGradient>
<linearGradient id="paint1_linear_65_4432" x1="82.8074" y1="80.7456" x2="82.8074" y2="119.196" gradientUnits="userSpaceOnUse">
<stop stop-color="#E1F3F9"/>
<stop offset="1" stop-color="#EFF1FE" stop-opacity="0"/>
</linearGradient>
<linearGradient id="paint2_linear_65_4432" x1="430.449" y1="23.0703" x2="430.449" y2="53.6631" gradientUnits="userSpaceOnUse">
<stop stop-color="#EFF1FE"/>
<stop offset="1" stop-color="#EFF1FE" stop-opacity="0"/>
</linearGradient>
<linearGradient id="paint3_linear_65_4432" x1="169.252" y1="78.0593" x2="245.244" y2="78.0593" gradientUnits="userSpaceOnUse">
<stop stop-color="#F6FDFE"/>
<stop offset="1" stop-color="#FAF8FF"/>
</linearGradient>
<linearGradient id="paint4_linear_65_4432" x1="168.943" y1="77.648" x2="244.935" y2="77.648" gradientUnits="userSpaceOnUse">
<stop stop-color="#EEFCFE"/>
<stop offset="1" stop-color="#F5F1FF"/>
</linearGradient>
<linearGradient id="paint5_linear_65_4432" x1="168.635" y1="77.2363" x2="244.626" y2="77.2363" gradientUnits="userSpaceOnUse">
<stop stop-color="#E5FAFD"/>
<stop offset="1" stop-color="#F0EBFF"/>
</linearGradient>
<linearGradient id="paint6_linear_65_4432" x1="168.326" y1="76.8254" x2="244.318" y2="76.8254" gradientUnits="userSpaceOnUse">
<stop stop-color="#DDF9FD"/>
<stop offset="1" stop-color="#EBE4FF"/>
</linearGradient>
<linearGradient id="paint7_linear_65_4432" x1="168.018" y1="76.4136" x2="244.009" y2="76.4136" gradientUnits="userSpaceOnUse">
<stop stop-color="#D4F7FC"/>
<stop offset="1" stop-color="#E6DDFF"/>
</linearGradient>
<linearGradient id="paint8_linear_65_4432" x1="167.709" y1="76.0024" x2="243.701" y2="76.0024" gradientUnits="userSpaceOnUse">
<stop stop-color="#CCF6FC"/>
<stop offset="1" stop-color="#E1D6FE"/>
</linearGradient>
<linearGradient id="paint9_linear_65_4432" x1="167.4" y1="75.5906" x2="243.392" y2="75.5906" gradientUnits="userSpaceOnUse">
<stop stop-color="#C3F4FB"/>
<stop offset="1" stop-color="#DCD0FE"/>
</linearGradient>
<linearGradient id="paint10_linear_65_4432" x1="167.092" y1="75.1793" x2="243.083" y2="75.1793" gradientUnits="userSpaceOnUse">
<stop stop-color="#BAF3FA"/>
<stop offset="1" stop-color="#D7C9FE"/>
</linearGradient>
<linearGradient id="paint11_linear_65_4432" x1="166.783" y1="74.768" x2="242.775" y2="74.768" gradientUnits="userSpaceOnUse">
<stop stop-color="#B2F1FA"/>
<stop offset="1" stop-color="#D2C2FE"/>
</linearGradient>
<linearGradient id="paint12_linear_65_4432" x1="166.475" y1="74.3562" x2="242.466" y2="74.3562" gradientUnits="userSpaceOnUse">
<stop stop-color="#A9F0F9"/>
<stop offset="1" stop-color="#CDBBFE"/>
</linearGradient>
<linearGradient id="paint13_linear_65_4432" x1="166.166" y1="73.9449" x2="242.157" y2="73.9449" gradientUnits="userSpaceOnUse">
<stop stop-color="#A1EEF9"/>
<stop offset="1" stop-color="#C9B5FE"/>
</linearGradient>
<linearGradient id="paint14_linear_65_4432" x1="165.857" y1="73.5331" x2="241.849" y2="73.5331" gradientUnits="userSpaceOnUse">
<stop stop-color="#98EDF8"/>
<stop offset="1" stop-color="#C4AEFE"/>
</linearGradient>
<linearGradient id="paint15_linear_65_4432" x1="165.549" y1="73.1218" x2="241.54" y2="73.1218" gradientUnits="userSpaceOnUse">
<stop stop-color="#90EBF8"/>
<stop offset="1" stop-color="#BFA7FE"/>
</linearGradient>
<linearGradient id="paint16_linear_65_4432" x1="165.24" y1="72.71" x2="241.232" y2="72.71" gradientUnits="userSpaceOnUse">
<stop stop-color="#87EAF7"/>
<stop offset="1" stop-color="#BAA0FE"/>
</linearGradient>
<linearGradient id="paint17_linear_65_4432" x1="164.932" y1="72.2993" x2="240.923" y2="72.2993" gradientUnits="userSpaceOnUse">
<stop stop-color="#7EE8F6"/>
<stop offset="1" stop-color="#B59AFE"/>
</linearGradient>
<linearGradient id="paint18_linear_65_4432" x1="164.623" y1="71.8875" x2="240.614" y2="71.8875" gradientUnits="userSpaceOnUse">
<stop stop-color="#76E7F6"/>
<stop offset="1" stop-color="#B093FD"/>
</linearGradient>
<linearGradient id="paint19_linear_65_4432" x1="164.315" y1="71.4762" x2="240.306" y2="71.4762" gradientUnits="userSpaceOnUse">
<stop stop-color="#6DE5F5"/>
<stop offset="1" stop-color="#AB8CFD"/>
</linearGradient>
<linearGradient id="paint20_linear_65_4432" x1="164.006" y1="71.0652" x2="239.997" y2="71.0652" gradientUnits="userSpaceOnUse">
<stop stop-color="#65E4F5"/>
<stop offset="1" stop-color="#A685FD"/>
</linearGradient>
<linearGradient id="paint21_linear_65_4432" x1="163.697" y1="70.6538" x2="239.689" y2="70.6538" gradientUnits="userSpaceOnUse">
<stop stop-color="#5CE2F4"/>
<stop offset="1" stop-color="#A17FFD"/>
</linearGradient>
<linearGradient id="paint22_linear_65_4432" x1="163.389" y1="70.2421" x2="239.38" y2="70.2421" gradientUnits="userSpaceOnUse">
<stop stop-color="#54E1F4"/>
<stop offset="1" stop-color="#9C78FD"/>
</linearGradient>
<linearGradient id="paint23_linear_65_4432" x1="163.08" y1="69.8308" x2="239.071" y2="69.8308" gradientUnits="userSpaceOnUse">
<stop stop-color="#4BDFF3"/>
<stop offset="1" stop-color="#9771FD"/>
</linearGradient>
<linearGradient id="paint24_linear_65_4432" x1="201.544" y1="88.0167" x2="201.544" y2="45.8126" gradientUnits="userSpaceOnUse">
<stop stop-color="#C7E9F9"/>
<stop offset="0.9995" stop-color="#F1F9FE"/>
</linearGradient>
<linearGradient id="paint25_linear_65_4432" x1="532.061" y1="218.998" x2="608.052" y2="218.998" gradientUnits="userSpaceOnUse">
<stop stop-color="#F6FDFE"/>
<stop offset="1" stop-color="#FAF8FF"/>
</linearGradient>
<linearGradient id="paint26_linear_65_4432" x1="531.752" y1="218.587" x2="607.744" y2="218.587" gradientUnits="userSpaceOnUse">
<stop stop-color="#EEFCFE"/>
<stop offset="1" stop-color="#F5F1FF"/>
</linearGradient>
<linearGradient id="paint27_linear_65_4432" x1="531.444" y1="218.175" x2="607.435" y2="218.175" gradientUnits="userSpaceOnUse">
<stop stop-color="#E5FAFD"/>
<stop offset="1" stop-color="#F0EBFF"/>
</linearGradient>
<linearGradient id="paint28_linear_65_4432" x1="531.135" y1="217.764" x2="607.126" y2="217.764" gradientUnits="userSpaceOnUse">
<stop stop-color="#DDF9FD"/>
<stop offset="1" stop-color="#EBE4FF"/>
</linearGradient>
<linearGradient id="paint29_linear_65_4432" x1="530.827" y1="217.353" x2="606.818" y2="217.353" gradientUnits="userSpaceOnUse">
<stop stop-color="#D4F7FC"/>
<stop offset="1" stop-color="#E6DDFF"/>
</linearGradient>
<linearGradient id="paint30_linear_65_4432" x1="530.518" y1="216.941" x2="606.509" y2="216.941" gradientUnits="userSpaceOnUse">
<stop stop-color="#CCF6FC"/>
<stop offset="1" stop-color="#E1D6FE"/>
</linearGradient>
<linearGradient id="paint31_linear_65_4432" x1="530.209" y1="216.53" x2="606.201" y2="216.53" gradientUnits="userSpaceOnUse">
<stop stop-color="#C3F4FB"/>
<stop offset="1" stop-color="#DCD0FE"/>
</linearGradient>
<linearGradient id="paint32_linear_65_4432" x1="529.901" y1="216.118" x2="605.892" y2="216.118" gradientUnits="userSpaceOnUse">
<stop stop-color="#BAF3FA"/>
<stop offset="1" stop-color="#D7C9FE"/>
</linearGradient>
<linearGradient id="paint33_linear_65_4432" x1="529.592" y1="215.706" x2="605.583" y2="215.706" gradientUnits="userSpaceOnUse">
<stop stop-color="#B2F1FA"/>
<stop offset="1" stop-color="#D2C2FE"/>
</linearGradient>
<linearGradient id="paint34_linear_65_4432" x1="529.283" y1="215.295" x2="605.275" y2="215.295" gradientUnits="userSpaceOnUse">
<stop stop-color="#A9F0F9"/>
<stop offset="1" stop-color="#CDBBFE"/>
</linearGradient>
<linearGradient id="paint35_linear_65_4432" x1="528.975" y1="214.883" x2="604.966" y2="214.883" gradientUnits="userSpaceOnUse">
<stop stop-color="#A1EEF9"/>
<stop offset="1" stop-color="#C9B5FE"/>
</linearGradient>
<linearGradient id="paint36_linear_65_4432" x1="528.666" y1="214.472" x2="604.658" y2="214.472" gradientUnits="userSpaceOnUse">
<stop stop-color="#98EDF8"/>
<stop offset="1" stop-color="#C4AEFE"/>
</linearGradient>
<linearGradient id="paint37_linear_65_4432" x1="528.358" y1="214.06" x2="604.349" y2="214.06" gradientUnits="userSpaceOnUse">
<stop stop-color="#90EBF8"/>
<stop offset="1" stop-color="#BFA7FE"/>
</linearGradient>
<linearGradient id="paint38_linear_65_4432" x1="528.049" y1="213.649" x2="604.04" y2="213.649" gradientUnits="userSpaceOnUse">
<stop stop-color="#87EAF7"/>
<stop offset="1" stop-color="#BAA0FE"/>
</linearGradient>
<linearGradient id="paint39_linear_65_4432" x1="527.74" y1="213.238" x2="603.732" y2="213.238" gradientUnits="userSpaceOnUse">
<stop stop-color="#7EE8F6"/>
<stop offset="1" stop-color="#B59AFE"/>
</linearGradient>
<linearGradient id="paint40_linear_65_4432" x1="527.432" y1="212.826" x2="603.423" y2="212.826" gradientUnits="userSpaceOnUse">
<stop stop-color="#76E7F6"/>
<stop offset="1" stop-color="#B093FD"/>
</linearGradient>
<linearGradient id="paint41_linear_65_4432" x1="527.123" y1="212.415" x2="603.115" y2="212.415" gradientUnits="userSpaceOnUse">
<stop stop-color="#6DE5F5"/>
<stop offset="1" stop-color="#AB8CFD"/>
</linearGradient>
<linearGradient id="paint42_linear_65_4432" x1="526.815" y1="212.004" x2="602.806" y2="212.004" gradientUnits="userSpaceOnUse">
<stop stop-color="#65E4F5"/>
<stop offset="1" stop-color="#A685FD"/>
</linearGradient>
<linearGradient id="paint43_linear_65_4432" x1="526.506" y1="211.592" x2="602.497" y2="211.592" gradientUnits="userSpaceOnUse">
<stop stop-color="#5CE2F4"/>
<stop offset="1" stop-color="#A17FFD"/>
</linearGradient>
<linearGradient id="paint44_linear_65_4432" x1="526.198" y1="211.181" x2="602.189" y2="211.181" gradientUnits="userSpaceOnUse">
<stop stop-color="#54E1F4"/>
<stop offset="1" stop-color="#9C78FD"/>
</linearGradient>
<linearGradient id="paint45_linear_65_4432" x1="525.889" y1="210.769" x2="601.88" y2="210.769" gradientUnits="userSpaceOnUse">
<stop stop-color="#4BDFF3"/>
<stop offset="1" stop-color="#9771FD"/>
</linearGradient>
<linearGradient id="paint46_linear_65_4432" x1="564.353" y1="228.955" x2="564.353" y2="186.751" gradientUnits="userSpaceOnUse">
<stop stop-color="#C7E9F9"/>
<stop offset="0.9995" stop-color="#F1F9FE"/>
</linearGradient>
</defs>
</svg>
