<svg width="220" height="192" viewBox="0 0 220 192" fill="none" xmlns="http://www.w3.org/2000/svg">
<g opacity="0.5">
<path d="M133.23 130.377C135.606 134.36 140.723 131.571 140.723 131.571C140.723 131.571 140.43 130.261 138.132 129.162C136.418 128.342 133.955 129.022 133.085 129.306L130.264 129.24H130.218C129.588 129.269 128.966 129.314 128.344 129.368C136.397 126.781 132.603 118.13 132.603 118.13C132.603 118.13 130.074 118.225 127.396 121.471C125.246 124.074 126.091 128.498 126.342 129.586C123.129 130.006 120.027 130.748 117.061 131.72C117.444 131.386 117.835 131.003 118.235 130.57C121.304 127.23 119.949 120.886 119.949 120.886C108.954 122.171 111.146 131.576 111.796 133.734C108.204 135.308 104.872 137.166 101.86 139.114C102.635 138.142 103.442 136.745 104.027 134.764C105.415 130.055 100.761 124.194 100.761 124.194C89.9843 130.36 97.737 139.275 99.2571 140.869C97.3251 142.228 95.5455 143.596 93.9513 144.91C92.2006 146.352 90.5858 147.794 89.1152 149.178C89.6507 147.868 90.1038 145.791 89.6713 142.821C88.8968 137.536 81.4943 133.4 81.4943 133.4C73.6469 143.513 84.8763 149.507 87.5086 150.731C82.5159 155.653 79.6324 159.517 79.5912 159.571L80.5633 160.168C80.5963 160.127 82.4829 157.598 85.8402 154.039C90.0008 166.026 104.324 159.933 104.324 159.933C104.324 159.933 103.97 156.663 98.6597 153.458C95.2365 151.39 90.1409 151.929 87.3932 152.432C89.4529 150.348 91.9246 148.02 94.7587 145.689C95.6938 144.922 96.6907 144.131 97.7411 143.34C101.428 154.652 114.729 148.992 114.729 148.992C114.729 148.992 114.404 146.002 109.551 143.069C106.499 141.223 101.984 141.647 99.4342 142.096C102.511 139.901 106.009 137.718 109.852 135.839C112.13 146.533 124.641 142.224 124.641 142.224C124.641 142.224 124.571 139.538 120.464 136.63C117.778 134.727 113.502 134.912 111.253 135.176C115.401 133.269 119.924 131.736 124.707 130.921C124.509 140.622 136.055 138.743 136.055 138.743C136.055 138.743 136.463 136.473 133.51 133.429C131.211 131.061 126.498 130.859 125.106 130.855C126.787 130.583 128.5 130.397 130.243 130.319L133.23 130.377Z" fill="#02516D"/>
<path d="M39.9584 188.04C39.9584 188.04 15.9919 138.826 33.3345 93.0924C50.6771 47.3633 92.5464 34 92.5464 34C92.5464 34 67.6901 60.1827 82.1203 101.018C95.7637 139.641 69.7457 188.04 69.7457 188.04H39.9584Z" fill="#1E8AB0"/>
<path opacity="0.3" d="M48.4362 188.04C48.4362 188.04 42.2983 87.9187 68.2628 61.5835C44.6423 94.7774 54.4793 188.04 54.4793 188.04H48.4362Z" fill="#065A78"/>
<path d="M89.6011 188.04H63.9705C64.9921 183.933 68.6789 171.517 77.8816 162.154C89.0574 150.776 103.158 151.88 103.158 151.88C103.158 151.88 95.4877 159.534 94.3137 173.293C93.84 178.776 91.8009 183.917 89.6011 188.04Z" fill="#0F6C8D"/>
<path opacity="0.3" d="M72.2793 188.04H70.3596C74.0094 180.44 83.3192 162.623 92.0358 159.002C83.5087 164.205 75.6654 180.32 72.2793 188.04Z" fill="#002B3A"/>
<path d="M30.3275 133.607C48.9883 155.74 53.1736 184.6 53.6185 188.044H17.3391C8.16115 180.337 -3.09299 167.863 -3.18362 152.865C-3.34016 126.085 -17 110.2 -17 110.2C-17 110.2 10.4515 110.035 30.3275 133.607Z" fill="#007EA5"/>
<path opacity="0.3" d="M42.1542 188.04H38.3891C33.9731 174.751 20.4698 137.742 3.42383 125.524C21.0259 134.402 37.4663 175.476 42.1542 188.04Z" fill="#005068"/>
<path d="M-3.6312 191.948H104.531V188.043H-3.6312V191.948Z" fill="#337FA7"/>
</g>
<path d="M99.898 29H143.102C144.151 29 145 28.2873 145 27.4073V1.59266C145 0.712697 144.151 0 143.102 0H99.898C98.8493 0 98 0.712697 98 1.59266V27.4073C98 28.2873 98.8493 29 99.898 29Z" fill="#0E7296"/>
<path d="M109.571 14.5915H111.421C112.106 14.5915 112.708 14.4948 113.227 14.3016C113.746 14.0982 114.152 13.8032 114.446 13.4168C114.74 13.0303 114.886 12.5675 114.886 12.0285C114.886 11.4182 114.74 10.9148 114.446 10.5181C114.152 10.1214 113.746 9.8265 113.227 9.63326C112.708 9.42984 112.106 9.32813 111.421 9.32813H108V20.0074H111.641C112.405 20.0074 113.075 19.9006 113.653 19.687C114.231 19.4734 114.676 19.1429 114.989 18.6953C115.312 18.2478 115.474 17.6732 115.474 16.9714C115.474 16.4425 115.366 15.9899 115.151 15.6136C114.945 15.2373 114.661 14.9322 114.299 14.6983C113.937 14.4542 113.526 14.2762 113.066 14.1643C112.615 14.0524 112.141 13.9965 111.641 13.9965H109.571V15.1865H111.451C111.715 15.1865 111.96 15.217 112.185 15.278C112.41 15.3288 112.606 15.4204 112.772 15.5526C112.948 15.6747 113.08 15.8323 113.168 16.0255C113.266 16.2086 113.315 16.4324 113.315 16.6968C113.315 17.063 113.232 17.363 113.066 17.5969C112.909 17.8308 112.689 18.0037 112.405 18.1156C112.121 18.2173 111.803 18.2682 111.451 18.2682H110.1V11.0673H111.23C111.69 11.0673 112.053 11.1741 112.317 11.3877C112.591 11.6013 112.728 11.9115 112.728 12.3183C112.728 12.5828 112.664 12.8116 112.537 13.0048C112.42 13.1981 112.248 13.3456 112.023 13.4473C111.798 13.549 111.534 13.5998 111.23 13.5998H109.571V14.5915Z" fill="#39B9E7"/>
<path d="M118.159 16.4222L116.661 17.5206C116.886 18.019 117.199 18.4818 117.601 18.9089C118.002 19.3361 118.472 19.6768 119.01 19.9311C119.559 20.1752 120.146 20.2972 120.772 20.2972C121.242 20.2972 121.688 20.221 122.108 20.0684C122.539 19.926 122.926 19.7175 123.268 19.4429C123.611 19.1581 123.88 18.8123 124.076 18.4055C124.272 17.9987 124.37 17.5359 124.37 17.0172C124.37 16.5595 124.296 16.1578 124.149 15.812C124.012 15.456 123.817 15.1509 123.562 14.8966C123.317 14.6322 123.038 14.4084 122.725 14.2253C122.422 14.0423 122.104 13.8897 121.771 13.7676C121.252 13.5846 120.821 13.4066 120.479 13.2337C120.136 13.0506 119.882 12.8625 119.715 12.6692C119.549 12.4658 119.466 12.2319 119.466 11.9674C119.466 11.703 119.568 11.4742 119.774 11.2809C119.979 11.0775 120.288 10.9758 120.699 10.9758C121.012 10.9758 121.291 11.0419 121.536 11.1741C121.781 11.2962 121.996 11.464 122.182 11.6776C122.378 11.881 122.544 12.1098 122.681 12.3641L124.326 11.4182C124.149 11.0419 123.9 10.6808 123.577 10.335C123.264 9.97906 122.867 9.68919 122.387 9.46544C121.918 9.23151 121.355 9.11455 120.699 9.11455C120.063 9.11455 119.485 9.2366 118.966 9.48069C118.457 9.71462 118.051 10.0553 117.748 10.5029C117.454 10.9402 117.307 11.464 117.307 12.0742C117.307 12.5828 117.4 13.0201 117.586 13.3862C117.772 13.7422 118.007 14.0473 118.291 14.3016C118.575 14.5457 118.873 14.7491 119.187 14.9118C119.51 15.0644 119.793 15.1865 120.038 15.278C120.498 15.4611 120.885 15.634 121.198 15.7967C121.521 15.9493 121.761 16.1272 121.918 16.3307C122.084 16.5341 122.167 16.8036 122.167 17.1392C122.167 17.5257 122.035 17.8308 121.771 18.0546C121.506 18.2783 121.164 18.3902 120.743 18.3902C120.381 18.3902 120.043 18.3089 119.73 18.1461C119.417 17.9834 119.128 17.7546 118.864 17.4596C118.609 17.1647 118.374 16.8189 118.159 16.4222Z" fill="#39B9E7"/>
<path d="M127.506 17.5817H132.939L132.689 15.8577H127.755L127.506 17.5817ZM130.193 12.7913L131.735 16.4985L131.705 17.0477L133.027 20.0074H135.405L130.193 8.70264L124.98 20.0074H127.344L128.695 16.9562L128.651 16.468L130.193 12.7913Z" fill="#39B9E7"/>
<path d="M174.898 84H218.102C219.151 84 220 83.2873 220 82.4073V56.5927C220 55.7127 219.151 55 218.102 55H174.898C173.849 55 173 55.7127 173 56.5927V82.4073C173 83.2873 173.849 84 174.898 84Z" fill="#0E7296"/>
<path d="M183.573 73.217H189.108L188.853 71.5272H183.827L183.573 73.217ZM186.31 68.5214L187.881 72.1553L187.851 72.6936L189.197 75.5948H191.621L186.31 64.5137L181 75.5948H183.408L184.785 72.6039L184.74 72.1254L186.31 68.5214Z" fill="#39B9E7"/>
<path d="M195.06 69.7177L198.097 74.6227L201.134 69.7177L201.807 75.5948H204.036L202.48 64.6034L198.097 71.3627L193.714 64.6034L192.158 75.5948H194.387L195.06 69.7177Z" fill="#39B9E7"/>
<path d="M205.714 65.1268V75.5948H212.027V73.7255H207.853V65.1268H205.714Z" fill="#39B9E7"/>
<path d="M147.06 168H193.94C195.078 168 196 167.287 196 166.407V140.593C196 139.713 195.078 139 193.94 139H147.06C145.922 139 145 139.713 145 140.593V166.407C145 167.287 145.922 168 147.06 168Z" fill="#0E7296"/>
<path d="M154.156 153.512C154.156 152.883 154.29 152.323 154.556 151.835C154.823 151.346 155.189 150.961 155.656 150.679C156.122 150.397 156.665 150.256 157.284 150.256C157.912 150.256 158.459 150.397 158.926 150.679C159.392 150.961 159.754 151.346 160.011 151.835C160.268 152.323 160.397 152.883 160.397 153.512C160.397 154.142 160.263 154.701 159.997 155.19C159.74 155.679 159.378 156.064 158.911 156.346C158.445 156.628 157.902 156.769 157.284 156.769C156.665 156.769 156.122 156.628 155.656 156.346C155.189 156.064 154.823 155.679 154.556 155.19C154.29 154.701 154.156 154.142 154.156 153.512ZM152 153.512C152 154.255 152.129 154.945 152.386 155.585C152.643 156.214 153.009 156.764 153.485 157.234C153.961 157.704 154.518 158.07 155.156 158.334C155.803 158.587 156.512 158.714 157.284 158.714C158.055 158.714 158.759 158.587 159.397 158.334C160.044 158.07 160.601 157.704 161.068 157.234C161.544 156.764 161.91 156.214 162.167 155.585C162.434 154.945 162.567 154.255 162.567 153.512C162.567 152.76 162.434 152.074 162.167 151.454C161.91 150.824 161.539 150.279 161.053 149.819C160.577 149.358 160.021 149.006 159.383 148.761C158.745 148.508 158.045 148.381 157.284 148.381C156.532 148.381 155.832 148.508 155.184 148.761C154.547 149.006 153.99 149.358 153.514 149.819C153.038 150.279 152.666 150.824 152.4 151.454C152.133 152.074 152 152.76 152 153.512Z" fill="#39B9E7"/>
<path d="M165.46 150.34H169.929V148.578H165.46V150.34ZM165.46 154.231H169.786V152.554H165.46V154.231ZM164.146 148.578V158.446H166.116V148.578H164.146Z" fill="#39B9E7"/>
<path d="M172.183 156.205H177.466L177.224 154.612H172.426L172.183 156.205ZM174.796 151.778L176.295 155.204L176.267 155.711L177.552 158.446H179.865L174.796 148L169.727 158.446H172.026L173.339 155.627L173.297 155.176L174.796 151.778Z" fill="#39B9E7"/>
<path d="M182.16 153.512C182.16 152.854 182.307 152.286 182.602 151.806C182.907 151.327 183.302 150.961 183.788 150.707C184.273 150.444 184.801 150.312 185.373 150.312C185.849 150.312 186.272 150.373 186.644 150.495C187.015 150.617 187.348 150.782 187.643 150.989C187.948 151.195 188.21 151.421 188.429 151.665V149.396C188.019 149.076 187.572 148.827 187.086 148.648C186.61 148.47 186.006 148.381 185.273 148.381C184.511 148.381 183.802 148.503 183.145 148.747C182.498 148.992 181.931 149.344 181.446 149.805C180.97 150.265 180.598 150.81 180.332 151.44C180.075 152.06 179.946 152.751 179.946 153.512C179.946 154.273 180.075 154.969 180.332 155.599C180.598 156.219 180.97 156.759 181.446 157.22C181.931 157.68 182.498 158.033 183.145 158.277C183.802 158.522 184.511 158.644 185.273 158.644C186.006 158.644 186.61 158.555 187.086 158.376C187.572 158.197 188.019 157.948 188.429 157.629V155.359C188.21 155.603 187.948 155.829 187.643 156.036C187.348 156.242 187.015 156.407 186.644 156.529C186.272 156.651 185.849 156.712 185.373 156.712C184.801 156.712 184.273 156.586 183.788 156.332C183.302 156.069 182.907 155.697 182.602 155.218C182.307 154.729 182.16 154.161 182.16 153.512Z" fill="#39B9E7"/>
</svg>
