<svg width="135" height="205" viewBox="0 0 135 205" fill="none" xmlns="http://www.w3.org/2000/svg">
<g opacity="0.5">
<path d="M145.173 173.349C145.173 173.349 102.386 144.451 94.9844 98.9152C87.5844 53.3822 115.483 22.7204 115.483 22.7204C115.483 22.7204 107.527 55.8304 138.573 82.3814C167.933 107.497 169.505 159.301 169.505 159.301L145.173 173.349Z" fill="#1E8AB0"/>
<path opacity="0.3" d="M152.099 169.351C152.099 169.351 99.8667 90.4609 108.656 56.7038C105.016 94.958 157.035 166.501 157.035 166.501L152.099 169.351Z" fill="#065A78"/>
<path d="M111.635 133.427C137.316 142.706 154.346 164.307 156.333 166.911L134.925 185.436C123.793 183.469 100.491 177.171 93.3434 164.963C80.5858 143.161 61.9365 136.628 61.9365 136.628C61.9365 136.628 84.2827 123.547 111.635 133.427Z" fill="#007EA5"/>
<path opacity="0.3" d="M146.967 172.314L143.891 174.089C134.017 165.317 105.533 141.454 85.8467 139.513C104.412 138.463 137.212 164.261 146.967 172.314Z" fill="#005068"/>
</g>
<path d="M44.8358 87.0542V185.475L40.5898 185.473V87.0542H44.8358Z" fill="#015EB9"/>
<path d="M42.7127 89.6718C62.5989 89.6718 78.7198 73.5724 78.7198 53.7129C78.7198 33.8533 62.5989 17.7539 42.7127 17.7539C22.8265 17.7539 6.70557 33.8533 6.70557 53.7129C6.70557 73.5724 22.8265 89.6718 42.7127 89.6718Z" fill="#063A78"/>
<path d="M64.328 63.2253L5.79371 64.3559L5.24561 36.4856L63.7799 35.355L64.328 63.2253Z" fill="#FFB547"/>
<path d="M23.5009 50.0504C23.4051 44.462 25.9039 39.6098 29.5779 37.394L11.4211 37.743C11.4211 37.7669 11.4235 37.7908 11.4235 37.8147C11.4786 40.585 9.39149 42.8725 6.76108 42.9251C6.718 42.9251 6.67492 42.9251 6.63184 42.9251L6.92623 57.8689C6.96932 57.8665 7.01239 57.8642 7.05547 57.8642C9.68588 57.8116 11.8615 60.0154 11.9166 62.7857C11.9166 62.8096 11.9166 62.8335 11.9166 62.8574L30.0494 62.5084C26.2821 60.4337 23.5966 55.658 23.5009 50.0504Z" fill="white"/>
<path d="M62.6458 41.8425C62.6027 41.8449 62.5596 41.8473 62.5165 41.8497C59.8861 41.9023 57.7105 39.6985 57.6554 36.9282C57.6554 36.9043 57.6554 36.8803 57.6554 36.8564L38.2637 37.2269C42.031 39.3017 44.714 44.0798 44.8122 49.6849C44.9079 55.2733 42.4067 60.1279 38.7352 62.3413L58.1509 61.9708C58.1509 61.9469 58.1485 61.923 58.1485 61.8991C58.0934 59.1288 60.1805 56.8414 62.8109 56.7888C62.854 56.7888 62.8971 56.7888 62.9402 56.7888L62.6458 41.8425Z" fill="white"/>
<path d="M44.8144 49.6821C44.7163 44.077 42.0332 39.2989 38.2659 37.2241L29.5777 37.3938C25.9037 39.6096 23.405 44.4618 23.5007 50.0502C23.5988 55.6577 26.2819 60.4335 30.0492 62.5106L38.7374 62.3409C42.409 60.1251 44.9101 55.2705 44.8144 49.6821Z" fill="white"/>
<path d="M44.8144 49.6821C44.7163 44.077 42.0332 39.2989 38.2659 37.2241L29.5777 37.3938C25.9037 39.6096 23.405 44.4618 23.5007 50.0502C23.5988 55.6577 26.2819 60.4335 30.0492 62.5106L38.7374 62.3409C42.409 60.1251 44.9101 55.2705 44.8144 49.6821Z" fill="#FFB547"/>
<path d="M34.077 46.7756C35.7787 47.7126 36.8725 48.4321 37.3584 48.934C38.0046 49.6105 38.3565 50.4327 38.4139 51.4008C38.4761 52.4572 38.1722 53.3703 37.502 54.1424C36.8318 54.9144 35.8649 55.3949 34.6011 55.5789L34.6729 56.7812L33.7778 56.8338L33.7108 55.7032C32.9832 55.7319 32.3321 55.7104 31.7649 55.6387C31.1953 55.5646 30.5394 55.4116 29.7951 55.1726L29.5964 51.8501L30.0296 51.8238C30.2115 52.5696 30.4652 53.1671 30.7884 53.6165C31.1115 54.0659 31.504 54.3933 31.9683 54.6037C32.4327 54.814 32.9975 54.9264 33.6677 54.9407L33.3661 49.859C31.65 48.9221 30.5011 48.1596 29.9171 47.5716C29.3355 46.9836 29.0196 46.2784 28.9693 45.4562C28.9167 44.5646 29.2135 43.7567 29.8597 43.0349C30.5059 42.313 31.5112 41.823 32.8731 41.572L32.8443 41.0892L33.7395 41.0366L33.7682 41.5195C34.941 41.5314 36.1353 41.823 37.3536 42.3895L37.5307 45.363L37.1286 45.3869C36.8893 44.7272 36.6188 44.1894 36.3149 43.7735C36.0109 43.3576 35.6303 43.0086 35.1732 42.7265C34.8237 42.521 34.369 42.3584 33.8113 42.2389L34.077 46.7756ZM32.909 42.2628C32.4111 42.3345 32.0162 42.4947 31.729 42.7457C31.2694 43.1377 31.0564 43.5918 31.0875 44.1057C31.1067 44.4212 31.2359 44.7343 31.4801 45.0427C31.7218 45.351 32.2795 45.7598 33.1483 46.2641L32.909 42.2628ZM34.5605 54.8905C35.1421 54.7184 35.5609 54.4579 35.817 54.1089C36.0707 53.7599 36.1856 53.3345 36.1545 52.8349C36.1282 52.4023 35.9822 52.0055 35.7165 51.6422C35.4508 51.2789 34.9769 50.8773 34.2972 50.4375L34.5605 54.8905Z" fill="white"/>
<path d="M78.3939 74.2082L19.8596 75.3412L19.3115 47.4709L77.8458 46.3379L78.3939 74.2082Z" fill="#FFB547"/>
<path d="M37.5663 61.0358C37.4706 55.4474 39.9693 50.5952 43.6433 48.3794L25.4866 48.7284C25.4866 48.7523 25.489 48.7762 25.489 48.8001C25.544 51.5704 23.4569 53.8579 20.8265 53.9104C20.7834 53.9104 20.7403 53.9104 20.6973 53.9104L20.9917 68.8543C21.0347 68.8519 21.0778 68.8495 21.1209 68.8495C23.7513 68.7969 25.927 71.0007 25.982 73.771C25.982 73.7949 25.982 73.8188 25.982 73.8427L44.1148 73.4938C40.3499 71.419 37.6645 66.6409 37.5663 61.0358Z" fill="white"/>
<path d="M76.7136 52.8254C76.6706 52.8278 76.6275 52.8302 76.5844 52.8326C73.954 52.8852 71.7784 50.6814 71.7233 47.9111C71.7233 47.8872 71.7233 47.8633 71.7233 47.8394L52.3315 48.2098C56.0988 50.2846 58.7819 55.0627 58.88 60.6678C58.9758 66.2562 56.4746 71.1108 52.8031 73.3242L72.2187 72.9537C72.2187 72.9298 72.2164 72.9059 72.2164 72.882C72.1613 70.1117 74.2484 67.8243 76.8788 67.7717C76.9219 67.7717 76.965 67.7717 77.008 67.7717L76.7136 52.8254Z" fill="white"/>
<path d="M58.8798 60.668C58.7817 55.0628 56.0987 50.2847 52.3314 48.21L43.6431 48.3797C39.9692 50.5954 37.4704 55.4476 37.5661 61.036C37.6643 66.6436 40.3473 71.4193 44.1146 73.494L52.8029 73.3243C56.4768 71.1086 58.978 66.2564 58.8798 60.668Z" fill="white"/>
<path d="M58.8798 60.668C58.7817 55.0628 56.0987 50.2847 52.3314 48.21L43.6431 48.3797C39.9692 50.5954 37.4704 55.4476 37.5661 61.036C37.6643 66.6436 40.3473 71.4193 44.1146 73.494L52.8029 73.3243C56.4768 71.1086 58.978 66.2564 58.8798 60.668Z" fill="#FFB547"/>
<path d="M48.1429 57.7615C49.8446 58.6984 50.9384 59.4179 51.4243 59.9199C52.0705 60.5963 52.4224 61.4185 52.4798 62.3866C52.542 63.4431 52.2381 64.3562 51.5679 65.1282C50.8977 65.9003 49.9308 66.3807 48.667 66.5648L48.7388 67.7671L47.8437 67.8196L47.7767 66.689C47.0491 66.7177 46.398 66.6962 45.8308 66.6245C45.2612 66.5504 44.6053 66.3974 43.861 66.1584L43.6623 62.836L44.0955 62.8097C44.2774 63.5554 44.5312 64.153 44.8543 64.6024C45.1774 65.0517 45.5699 65.3792 46.0342 65.5895C46.4986 65.7999 47.0634 65.9122 47.7336 65.9266L47.432 60.8449C45.7159 59.9079 44.5671 59.1454 43.9831 58.5574C43.4014 57.9694 43.0855 57.2643 43.0352 56.442C42.9826 55.5505 43.2794 54.7426 43.9256 54.0207C44.5718 53.2989 45.5771 52.8089 46.939 52.5579L46.9102 52.075L47.8054 52.0225L47.8341 52.5053C49.0069 52.5172 50.2012 52.8089 51.4195 53.3753L51.5966 56.3488L51.1945 56.3727C50.9552 55.713 50.6847 55.1752 50.3808 54.7593C50.0768 54.3434 49.6962 53.9944 49.2391 53.7124C48.8896 53.5068 48.4349 53.3443 47.8772 53.2248L48.1429 57.7615ZM46.9773 53.2487C46.4794 53.3204 46.0845 53.4805 45.7973 53.7315C45.3377 54.1235 45.1247 54.5776 45.1558 55.0915C45.175 55.4071 45.3042 55.7202 45.5484 56.0285C45.7901 56.3369 46.3478 56.7456 47.2166 57.2499L46.9773 53.2487ZM48.6263 65.8764C49.208 65.7043 49.6268 65.4437 49.8829 65.0948C50.1366 64.7458 50.2515 64.3203 50.2204 63.8207C50.1941 63.3881 50.0481 62.9913 49.7824 62.628C49.5167 62.2647 49.0428 61.8631 48.3631 61.4233L48.6263 65.8764Z" fill="white"/>
<path d="M42.7125 12C19.6444 12 0.944336 30.675 0.944336 53.7123C0.944336 76.7495 19.6444 95.4246 42.7125 95.4246C65.7806 95.4246 84.4806 76.7495 84.4806 53.7123C84.4806 30.675 65.7782 12 42.7125 12ZM9.85995 53.7123C9.85995 35.5918 24.5677 20.9037 42.7125 20.9037C50.0484 20.9037 56.8243 23.3059 62.2909 27.3669L16.3295 73.2645C12.2654 67.8028 9.85995 61.0384 9.85995 53.7123ZM42.7125 86.5185C35.3766 86.5185 28.6007 84.1163 23.134 80.0553L69.0931 34.1576C73.1572 39.6194 75.565 46.3838 75.565 53.7099C75.565 71.8304 60.8549 86.5185 42.7125 86.5185Z" fill="#015EB9"/>
</svg>
