<svg width="1920" height="231" viewBox="0 0 1920 231" fill="none" xmlns="http://www.w3.org/2000/svg">
<g opacity="0.3">
<path opacity="0.15" d="M1900.21 196.38V81.34L1879.8 60.09H1863.1V51.72H1857.33V95.5H1800L1785.36 80.26H1774.84V101.08H1755.87V88.64L1749.68 95.08V101.09C1749.68 101.09 1733.88 100.52 1732.45 100.99C1732.91 99.35 1732.36 79.2 1732.36 79.2H1699.37V14.81H1683.7V34.13H1671.33V14.81H1654.84V34.99H1622.67V101.95H1585.14V80.91L1579.57 86.7V115.89H1564.93V73.19L1541.22 48.51V86.93H1526.58V71.9H1481.22V89.07H1472.56V115.9H1463.9V41.42H1454.83V59.88H1396.27V72.33H1386.79V54.3H1374.83V102.81H1299.37V65.46H1292.77V83.06H1264.32V31.12L1234.43 0L1204.12 31.55V47H1174.02L1140.62 81.77H1090.21V35.84H1081.24V50.01L1074.44 42.93V23.83H1050.32V60.75H1005.37V110.54H996.71V83.92H987.23V115.9H981.46V92.5L975.07 85.85V40.14H970.33V86.07L963.94 92.72V134.14H960H956.08V92.72L949.69 86.07V40.14H944.95V85.86L938.56 92.51V115.9H932.79V83.92H923.31V110.53H914.65V60.74H869.7V23.82H845.58V42.92L838.78 50V35.84H829.81V81.77H779.4L745.98 47H715.88V31.55L685.57 0L655.67 31.12V83.06H627.22V65.46H620.62V102.81H545.16V54.3H533.2V72.33H523.72V59.88H465.16V41.42H456.09V115.9H447.43V89.07H438.77V71.9H393.4V86.92H378.76V48.51L355.05 73.19V115.9H340.41V86.71L334.84 80.92V101.95H297.31V34.98H265.15V14.81H248.66V34.13H236.29V14.81H220.62V79.2H187.63C187.63 79.2 187.08 99.35 187.54 100.99C186.11 100.53 170.31 101.09 170.31 101.09V95.08L164.12 88.64V101.09H145.15V80.27H134.63L120 95.51H62.68V51.73H56.91V60.1H40.21L19.79 81.34V196.38H0V228.12H960H1920V196.38H1900.21Z" fill="url(#paint0_linear_2017_326)"/>
<path opacity="0.35" d="M1910.72 154.38V180.14H1905.15V148.27H1894.33L1884.74 138.29H1874.84V167.26H1867.42V149.88H1856.9V169.2H1848.86V70.6698H1840.51V52.3198L1822.26 71.3098H1811.13V162.1H1801.85V134.41H1769.68V123.46H1762.26V133.76H1754.22V144.38H1749.58L1739.99 134.4H1722.05L1712.15 124.1H1694.52V144.38L1686.79 152.43V134.4H1681.22V91.8998L1673.8 84.1698H1660.19L1652.77 91.8998V162.73H1644.11V120.23H1638.54V115.72H1633.59V118.94H1608.23V173.03L1582.25 145.99V131.82H1569.88V121.52H1555.03V115.08H1526.58V134.4H1521.01V169.81H1511.73V62.2998H1497.5V76.4698H1492.24V123.15L1483.27 132.49V146.01H1461V161.46H1452.65V97.3898L1448.63 93.1998V104.15H1409.04C1409.04 104.15 1410.9 142.78 1409.04 142.78C1407.18 142.78 1392.96 142.78 1392.96 142.78V128.61L1383.68 118.95V93.8498H1378.73V119.61L1371.31 127.34V142.79H1365.74V126.69H1360.17V142.79H1340.99V99.6498H1327.38V111.24L1321.81 117.03V185.28H1309.44V122.82H1262.43V142.78H1255.01V112.52H1246.35V106.73H1237.07V93.2098H1229.03V87.4198H1219.13V94.4998H1211.71V78.3998H1166.56V121.54H1136.25V112.53H1126.35V173.7H1110.27V117.68H1101.61V172.41H1090.17V79.3598L1075.02 63.5798V55.8498H1064.5V41.0498H1034.19V52.6398H1027.39V116.38H1019.35V124.75H1006.98L1003.27 128.61V144.71H997.7V128.61H982.85V189.13H971.1V165.95H960H948.87V189.13H937.12V128.61H922.27V144.71H916.7V128.61L912.99 124.75H900.62V116.38H892.58V52.6398H885.78V41.0498H855.47V55.8598H844.95V63.5898L829.8 79.3698V172.41H818.36V117.68H809.7V173.7H793.62V112.53H783.72V121.54H753.4V78.3998H708.25V94.4998H700.83V87.4198H690.93V93.2098H682.89V106.73H673.61V112.52H664.95V142.78H657.53V122.82H610.52V185.28H598.15V117.03L592.58 111.24V99.6498H578.97V142.79H559.79V126.69H554.22V142.79H548.65V127.34L541.23 119.61V93.8498H536.28V118.96L527 128.62V142.79C527 142.79 512.77 142.79 510.92 142.79C509.06 142.79 510.92 104.16 510.92 104.16H471.33V93.2098L467.31 97.3998V161.47H458.96V146.02H436.7V132.5L427.73 123.16V76.4698H422.47V62.2998H408.24V169.83H398.96V134.42H393.39V115.1H364.94V121.54H350.1V131.84H337.73V146.01L311.75 173.05V118.96H286.39V115.74H281.44V120.25H275.87V162.75H267.21V91.9198L259.79 84.1898H246.18L238.76 91.9198V134.42H233.19V152.45L225.46 144.4V124.12H207.83L197.93 134.42H180L170.41 144.4H165.77V133.78H157.73V123.48H150.31V134.43H118.15V162.12H108.87V71.3198H97.73L79.48 52.3198V70.6698H71.13V169.18H63.09V149.86H52.58V167.24H45.16V138.27H35.26L25.67 148.25H14.85V180.12H9.28V154.36H0V231.17H960H1920V154.36H1910.72V154.38ZM94.36 133.87H84.15V115.49H94.36V133.87ZM94.36 104.25H84.15V85.8698H94.36V104.25ZM256.62 118.9H248.77V101.25H256.62V118.9ZM419.86 118.8H413.35V104.16H419.86V118.8ZM419.86 96.8398H413.35V82.2098H419.86V96.8398ZM476.64 123.11H471.47V111.49H476.64V123.11ZM489.85 123.11H484.68V111.49H489.85V123.11ZM502.01 123.11H496.84V111.49H502.01V123.11ZM590.38 131.82H585.21V120.2H590.38V131.82ZM720.54 100.11H715.37V88.4798H720.54V100.11ZM733.37 100.11H728.2V88.4798H733.37V100.11ZM746.2 100.11H741.03V88.4798H746.2V100.11ZM846.58 97.2898H838.74V79.6798H846.58V97.2898ZM866.02 97.2898H858.18V79.6798H866.02V97.2898ZM885.47 97.2898H877.63V79.6798H885.47V97.2898ZM1041.99 94.2998H1034.15V76.6798H1041.99V94.2998ZM1061.43 94.2998H1053.59V76.6798H1061.43V94.2998ZM1080.88 94.2998H1073.04V76.6798H1080.88V94.2998ZM1183.43 106.94H1175.59V92.7698H1183.43V106.94ZM1202.88 106.94H1195.04V92.7698H1202.88V106.94ZM1426.75 129.66H1418.91V115.49H1426.75V129.66ZM1446.2 129.66H1438.36V115.49H1446.2V129.66ZM1671.64 111.79H1663.8V97.6198H1671.64V111.79ZM1833.77 97.6198H1825.93V83.4498H1833.77V97.6198Z" fill="url(#paint1_linear_2017_326)"/>
</g>
<defs>
<linearGradient id="paint0_linear_2017_326" x1="960" y1="-0.682" x2="960" y2="240.418" gradientUnits="userSpaceOnUse">
<stop stop-color="#066A8D"/>
<stop offset="1" stop-color="white" stop-opacity="0"/>
</linearGradient>
<linearGradient id="paint1_linear_2017_326" x1="960" y1="42.2114" x2="960" y2="229.111" gradientUnits="userSpaceOnUse">
<stop stop-color="#066A8D"/>
<stop offset="1" stop-color="white" stop-opacity="0"/>
</linearGradient>
</defs>
</svg>
